<?xml version="1.0" encoding="UTF-8"?>
<svg id="Camada_1" data-name="Camada 1" xmlns="http://www.w3.org/2000/svg" viewBox="0 0 2466.88 1161.18">
  <defs>
    <style>
      .cls-1 {
        fill: #600026;
      }
    </style>
  </defs>
  <g>
    <g>
      <path class="cls-1" d="M983.16,598.52c-16.16,1.78-32.47,3.77-48.52,5.88M944.68,612.66c-88.91,11.68-301.88,18.78-302.3,18.94,0,0-3.38,12.7-86.52,21.33-58.65,6.09-112.16,10.1-145.19,14.81,0,0,44.87,7.65,17.33,11.65-65.85,9.58-115.8,17.17-118.66,18.57-1.91.93,13.46,4.41,6.52,6.52-7.89,2.4-20.64,1.22-30.81,4.15-24.09,6.92-60.96,15.57-55.7,15.41,22.51-.7,50.02-10.9,71.11-7.7,8.21,1.24-75.85,26.07-21.33,13.04,17.73-4.24,49.94-7.54,65.19-7.86,12.46-.26,17.19,4.9,39.12,1.59,11.6-1.75,24.77,1.99,39.7,2.12,8.85.08-5.39-7.79,4.74-7.95,2.39-.04,26.07-4.49,26.07-4.49,6.56-1.29-1.19,8.73-1.19,8.73,7.91-3.18,46-8.44,55.7-10.51,7.5-1.6,13.57-12.52,21.66-14.27,6.44-1.39,49.28,1.52,55.97.05,91.25-19.99,67.65,8.76,71.7,4.74,5.72-5.68,20.86-26.39,60.44-22.52,10.67.79,53.27,12.15,40.19,14.81-9.46,1.93,59.03-16.38,60.85-16.04.73.19-15.67,25.09-13.92,24.34,59.26-25.48,125.74-11.53,122.67-10.07-1.6.67-13.04-19.83-15.28-19.61,10.23-4.51,112.92-19.74,123.84-22.89-3.17,1.72,106.26-5.63,114.61-5.52,24.3.14-30.3-5.92.14-8.82,109.02-8.11,59.6,7.4,162.4-10.07,3.3-.31-48.55,25.78-50.53,25.07,30.47-2.71,80.47-16.38,81.84-17.02,64.77-8.82,14.51-24.08,10.28-30.25.88-2.02,6.72-1.93,6.43.03-.13,1.17,36.84,18.87,51.89,16.92,31.86-4.32,31.11-25.59,43.47-25.86,10.34-.21,10.82-.13,6.32,1.33-5.67,1.7-7.71,5.37-5.89,10.74,1.19,3.75,2.5,3.76,11.71.43,7.03-2.47,11.5-1.74,9.44,1.55-1.14,1.78.07,5.79,1.84,5.62.59-.06.98-1,.88-2.02.16-3.46,2.45-2.03,2.52,1.44,2.37,8.62-46.49,23.15-51.15,24.33-11.79,2.54-19.73,7.93-14.21,9.6,4.77,2.16,18.25-6.59,23.19-9.04,2.82.59,30.37-14.07,39.56-14.72,3.61,1.34,1.12-3.37,3.83-3.58q1.89-.18,2.85,6.17c1.02,6.99,3.45,15.01,4.72,15.79.63.33,1.27,2.07,1.45,3.99.59,4.73,3.6,9.89,2.35-.35-.44-4.6-.21-7.2.55-6.75,1.8.76,1.16-2.22-.18-1.92-1.27.27-2.02-2.66-.18-1.92.63.33,1.16-.37,1.05-1.52-.43-11.49,11.27,28.83,11.63,28.41,1.13,1.94.51,6.74-.07,9.29-.95-1.84-2.85-5.54-3.8-7.37.02,1.23.88,7.09-.56,6.63-.64-.45-.79.46-.3,1.83,1.3,3.61,3.01,4.1,5.15,1.57,1.71-2.1,2.06-2.13,2.81-.52.9,1.98-1.4,5.29-2.72,4-1.59-.63-.35,4.05.8,3.4.71-.07,1.15.79.77,1.86-.42,1.84,1.17,2.34,4.8,1.61.71-.07,2.64,2.71,4.41,6.28,4.97,9.71,5.3,10.71,3.89,10.84-.71.07-1.38-.77-1.48-1.79.13-1.97-2.46-2.5-2.42-.41.13,5.46-7.88-7.27-4.15-6.05,1.66-.09,1.09,4.02,3.31,3.55q2.24-.21-.73-5.21c-3.7-6.15-1.5.24-4.54-.21-4.57-2.07,9.57,22.98.5,14-2.19-1.72-2.31-1.71-2.11.33.12,1.28,1.53,2.3,3.82,2.6,4.52.22,2.85,3.14,5.67,4.49.98.29,1.88,2.27,2.13,4.82s.84,5.08,1.28,5.94c.56.85-.09.27-1.43-1.28-1.35-1.68-3.48-4.05-4.79-5.34q-2.38-2.48-1.31,0c.91,1.91,2.83,11.73,2.85,13.65.18.63.66.71,1.1.28.99-.87,3.35,2.65,5.25,7.62,2.9,7.97,23.27,29.36,30.82,32.38,1.73.61,4.36,3.32,5.8,5.89,1.42,2.44,8.51,9.37,15.5,15.28,13.84,10.85,26.83,26.48,39.58,35.55,16.28,11.15,31.54,24.68,48.57,34.95,4.85,2.13,28.6,18.87,27.76,16.44.84-.19-32.45-21.06-18.91-14.83,5.61,2.69,21.05,13.47,21.18,14.87-.05.78,1.72,1.77,3.78,2.22,2.08.58,3.73,1.71,3.69,2.48.31,3.93,24.03,12.08,28.21,16.13,2.58,2.08,19.81,6.75,23.47,6.4,5.51-1.47.9-5,10.57-2.81,7.76,1.45,9.65,1.27,9.49-.39-.06-.64-1.3-1.17-2.84-1.02-1.69.85-11.17-4.25-4.32-2.81,6.05.26.84-2.22-2.96-2.3-4.12-.07-6.83-2.39-9.04-3.65-.35.03-3.69-1.2-7.51-2.64-11.98-4.53-6.83-4.25,7.91.54,7.62,2.5,16.92,5.09,20.55,5.78,21.1,4.05,23.68,4.84,18.87,5.55-1.18.11.56.85,3.84,1.57,10.22,2.25,9.97,2.15,8.1,3.74-.88.73-3.23,1.08-5.16.88-10.34.43,13.41,4.91,17.93,4.48,1.78-.04,3.26.46,3.32,1.1.17,1.3,4.19.06,4.81.45,1.41.19,8.12.64,9.57,1.67,1.91,1.08,12.74.87,14.01,3.31.45.99,2.16,1.47,4.05,1.29q8.09-1.29,10.69,8.52c3.84,14.21,11.29,31.83,13.13,45.41-.75,4.83-4.89-6.09-3.93,1.28.18,1.92.95,3.78,1.71,4.22,1,.55,1.05,1.06.05,1.8-1.51.43-.92,11.79-1.21,12.36-1.42.13-.04,14.57,1.64,17.24,1.56,1.72,2.84,13.04,4.14,14.69.51.34.67,2,.46,3.56-.82,3.42,3.54,4.6,2.98,7.58-.26,1.06.17,1.79,1,1.71.83-.08,1.25.65,1,1.71-.51,2.11,2.37,4.93,3.54,3.4.42-.56,1.1.28,1.72,1.77,1.51,4.63,2.9,2.95,2.65-3.47-.2-5.91,2.38-10.02,2.89-4.66.15,1.53,1.85,6.91,3.77,12.14,7.41,19.06,5.59,1.71,9.61,2.18,1.65-.16,2.16-1.11,1.88-4.05-.23-4.9,2.09-6.3,3.05.74.93,4.81,2.1,4.57,3.53-.46,1.78-6.36,4.13-6.71,3.75-.61-.44,3.03.95,6.12,1.64,3.45-.7-2.38.26-17.3,1.03-18.01.55-.44,1.06-.1,1.12.54,1.23,3.04,2.67.25,2.08-3.16-.23-2.43.13-4.91.68-5.35.73-9.06-3.74-33.63-3.37-46.72-1.04-20.63,1.42-31.6-1.91-48.92-1.83-4.11-1.96-17.3-1.88-23.54,2.57-.97,22.3-5.98,14.89,0-2.65,2.19-2.53,2.17,2.72,1.03,2.97-.13,10.91-4.05,11.09-2.34-.28.8,3.06.87,7.9.41,22.61-2.41,27.51-23.74,54.35-30.81,10.29-3.57,16.72-8.53,18.45-11.29,1.09.16,9.39-6.43,8.74-7.02-.78-.7-5.45,1.55-5.34,2.7.06.64-.95,1.25-2.13,1.36-1.3.12-2.65.9-2.95,1.57-1.58,2.18-2.44-.59-5.38,2.32-2.39,2.46-19.97,7.52-22.57,9.36-3.9,2.82-11.79,6.28-12.44,5.69-1.16-.92,1.94-3.41,4.53-3.65,1.06-.1,1.96-.7,1.88-1.47.16-1.71,5.73-2.11,8.49-4.67,3.7-3.09,7.65-2.52,10.27-4.71,5.07-6.5,9.72-4.05,15.1-12.78,17.33-12.32,25.3-13.97,59.07-40.03,4.95-3.24,15.02-13.23,19.13-15.48-.08,2.7-16.77,16.62-20.39,21.01-2.31,1.84-3.6-.24-4.84,4.2-1.74,5.99-2.27-1.29-5.4,2.06-1.23.89-1.4,1.55-.57,1.47,6.86-.73-12.18,10.91-6.23,10.9,1.3-.12,9.16-7.57,9.07-8.6-.05-.51,1.24-.76,2.68-.64,1.57.24,4.55-.95,6.65-2.69,6.86-5.55,6.24-3.3-.71,2.52-6.83,5.8-8.48,8.54-4.94,8.2.94-.09,1.71-.81,1.62-1.7-.07-.77.26-1.06.65-.71.87,1.19,5.04-3.05,5.16-.88.17,1.79,6.76-2.83,7.36-5.21.26-1.06,1.28-1.54,2.26-1.25,3.6.05,18.13-13.12,20.11-18.92-.1-1.02.56-1.6,1.42-1.3,2.58,1.78,12.47-15.68,15.6-20.04,4.35-7.63,25.99-38.26,30.44-41.82.59-.06,1.75-1.58,2.66-3.35,2.93-6.12,6.48-9.96,10.28-17.09,2.92-6.17,8.9-10.2,11.28-14.09,1.49-4.61,6.63-11.54,9.02-17.87,1.85-4.3,3.78-7.83,4.25-7.88,1.18-.11,6.98-11.75,6.8-13.66-.09-.89-1-.55-2.39,1.13q-2.37,2.67-1.73-.61c.84-4.98,3.27-9.46,4.65-8.69.74.32.95-1.25.54-4.3-.37-2.67.22-7.75,1.3-11.34s1.55-7.49,1.07-8.74c-.61-1.36-.47-2.4.36-2.48.71-.07.82-1.37.18-3.11-1.54-4.36,2.22-4.53,3.37-8.44,2.18-5.06-2.65-1.24-2.29.99.49,3.78-2.16-3.52-2.26-1.2-.09,2.39-7.53,19.91-9.65,25.02-1.49-12.1,5.71-29.2,7.98-41.36,3.66-17.75,3.94-19.23,6.24-19.54-3.3-.04,2.55-13.18,2.23-15.42-1.74-8.38-.16-12.32,1.94-17.2.13-4.36,2.22-10.11,2.97-16.39.99-5.89,1.77-7.64,3.54-7.81,1.53-.15,2.07.45,1.73,1.9-1.47,5.81-1.35,8.38.42,8.21,3.39.34,2.22-7.93,2.56-10.68,25.75-5.4,75.9-10.45,111.68-17.71,11.04-2.04,16.36-5.89,29.93-4.52,6.22.31,13.13.3,15.25.1,1.99-.32,3.81.02,3.87.66s1.17,1.05,2.59.91c1.3-.12,2.08-.71,1.67-1.19-.83-1.21,7.1-1.71,8.27-.66,5.91-.88,8.16-3.9,18.24-4.83,6.1-.53,4.91-2.54,9.56-3.36,3.63,0,1.82-3.42,3.65-4.21,2.24-.77.69-2.87-2.01-2.39-1.65.16-3-.23-3.05-.74-.87-1.32,30.74-6.24,28.79-7.76.23-1.31-1.69-1.51-6.65-1.04-8.73.83-12.1-.78-6.48-2.99,2.52-1.01,3.84-2.17,3.59-3.56-.7-2.93,2.66-1.82,3.32-3.92,1.27-2.8-13.19,3.78-9.11-.68,1.23-2.05.97-2.28-2.68-1.94-4.37.42-11.78-1.2-11.91-2.48-.05-.51-2.1-.83-4.49-.86-2.37.1-4.91-.31-5.81-.99-1.93-1.49-8.41-2.04-16.83-1.62-52.46,3.05-67.7,4.37-82.67,7.22-17.77,3.49-24.97,4.18-27.01,2.7-.77-.57-9.22-.54-18.95-.13-15.4.82-17.68.65-20.15-1.56s-2.83-2.18-5.36,0c-3.31,2.76-10.96,2.46-11.24-.48-.11-1.15-.87-1.59-1.77-1.12-2.16,1.11-9.92-.35-11.16-2.16-1.36-1.8,2.59-5.27,5.28-4.63,1.45.25,2.12-.2,2-1.48-.28-2.94,1.76-2.75,2.76.25.51,1.63,1.4,2.19,2.65,1.55,2.16-1.11,2.07-2,.11-6.33-1.85-5.24-4.68-.17-6.19-2.5-.07-.77-.84-1.34-1.67-1.26-1.89.18-3.71-15.24-1.97-16.95.87-.86.7-1.36-.41-1.77-2.09-.7-6.64-8.52-8.28-14.42-1.67-6.29-12.05-25.28-18.75-34.43-5.75-9.08-20.24-18.18-22.82-28.38-3.3-9.61-3.24-10.26-.06-14.43,2.22-2.92,2.56-4.37,1.66-7.63-3.52-12.15-9.51.28-15.34-16.07-2.39-5.06-5.36-10.06-6.52-10.98-1.83-1.76-1.81-1.5.41,3.05,1.33,2.71,1.85,4.46,1.19,3.75-2.9-2.95-9.8-12.86-9.94-14.39-.17-2.41-11.03-11.36-10.86-14.05-.26-2.68-2.68-4.39-3.68-2.36-.66,1.88-4.14-1.72-2.88-2.69.55-.44,1.43,0,1.74.74.95,2.15,1.53-3.78-1.99-2.13-2.1.46-3.38-.45-6.15-4.57-11.51-18.27-21.44-27.75-35.37-42.65,4-.02,12.46.26,15.09,2.17,4.85,2.41,7.16.58,12.64,3.95,11.99,6.34,30.16-1.08,14.8-13.39-3.91-2.33-5.24-2.47-11.42-1.1-7.31,2.38-32.54-1.62-40.19-.69-5.43.52-6.06.19-14.12-7.03-12.6-11.55-7.68-13.66-26.67-22.47-9.58-4.37-11.24-5.51-10.55-6.99.29-.67.14-1.04-.44-.86-.57.31-3.25-.34-6.09-1.48-4.81-1.73-5.08-2.09-4.88-6.24,1.23-6.24-3.98-4.71-5.52-1.67-.88,2.02-1.36,1.93-5.25-.14-2.39-1.32-9.8-4.1-16.55-6.29-19.91-6.48-23.51-8.08-24.47-10.69-.85-2.63-3.99-3.1-5.08-.81-.29.67-2.69.51-5.79-.74-6.3-2.37-12.6-3.57-39.1-8.01-14.63-2.35-24.27-4.78-33.66-8.4-16.5-6.55-10.54-3.23-26.2-8.85-6.16-2.12-12.55-4.22-14.25-4.57q-2.92-.62-.48,1.21c3.31,2.26,1.3,2.45-5.43.52-13.87-3.86-11.41,5.54-18.1-20.06-4.35-16.99-7.71-48.5-5.43-52.07,1.23-2.05.89-5.63-1.54-13.64-.69-2.02-3.2-13.02-4.84-14.62-.79-.83-.98-1.58-.51-1.63s.28-.8-.39-1.64c-.78-.7-2.57-4.52-4.12-8.24-2.23-6.66-4.58-8.48-5.47-13.66-.15-3.17-2.68-3.17-2.37.1.13,1.4-.19,2.98-.86,3.43-.55.44-1.22-.27-1.35-1.68-.15-4.39-3.87-9.4-3.93-3.75.4,4.22-1.72,4.42-5.42.64-4.47-4.47-5.78-3.19-8.06,7.86-1.24,5.79-2.2,8.2-3.41,7.93-.86-.3-1.89.18-2.3.86-.97,2.28-2.91.66-3.25-2.91-.01-2.41-1.98-4.15-2.45-1.96.3,1.27.62,8.77.83,11.26-1.51-2.75-4.54-8.28-6.05-11.02-.53,2.15-1.46,7.15-3.34,7.41-1.18.11-1.25,1.92-.18,8.14,3.92,21.15,6.17,68.62,3.34,68.89-2.84-.22-12.43-10.93-15.81-11-3.72-1.11-19.81-6.19-23.66-5.87-2.82.4-2.81.52,1.7,4.09,6.04,4.71,22.64,12.67,29.82,14.31,4.93.49,14.72,5.35,6.56,7.63-7.18.98,7.6,6.79,6.61,18.19.6,6.26.32,8.35-1.12,9.52q-1.88,1.47.13,1.41c1.3-.12,2.1.83,2.29,2.75.26,2.68-.53,3.14-8.19,5.29-6.15,1.74-10.22,3.94-14.53,7.44-6.71,5.79-8,6.04-22.06,4.68-11.42-1.11-35.24-2.45-38.55-2.13-3.82.95-1.58,2.95,2.01,2.39,5.8-.38,24.18,1.89,30.45,2.13,6.34.3,9.92,1.63,5.81,2.28-1.18.11-.29.67,2.02,1.23,4.13.9,4.15,1.02,1.4,2.19-3.2,1.41-20.73,7.03-23.99,8.21-3.86,1.12-.33,2.85-1.96,3.15-8.94.7-.4,6.06,5.45-.26,3.36-4.18,3.47.92,8.73-2.12,7.07-3.75,7.49,5.18.47,4.98-22.82,5.78-1.05,7.37-14.9,11.08-10.61,2.97-63.52,36.75-74.29,46.5-4.38,4.02-5.27,3.46-1.79-1.25,5.52-6.8,5.96-3.72,14.59-11.83,12.21-10.99,1.99-2.76,3.61-7.17,2.52-6.76-13.16,6.18-14.85,5.41-.23-1.91,17.25-11.36,5.4-9.54-4.19,1.04-7.35,2.89-13.44,7.72-6.8,5.11-6.7,2.64-14.16,10.11-3.71,3.57-7.01,6.47-7.36,6.5-1.05.29-4.73,7.28-6.36,7.05-.94.09-2.43,2.04-3.18,4.17-.86,3.66-6.92,9.72-7.73,12.59.15,1.53-6.41,8.99-13.86,15.75-8.88,8.06-16.4,16.64-16.23,18.43.07.77-1.91,2.5-4.42,3.64s-4.5,2.75-4.42,3.64c-3.59,6.93-21.28,30.25-20.66,33.16.5,1.21-10.38,15.89-10.31,16.83-1.07,2.22-4.99,3.85-3.28,8.05,1.9,5.5-2.29,2.53-2.54,5.91.1,1.02-.16,2.08-.61,2.38-1.47.78-4.25,9.17-4.01,11.72-.24,4.1-3.9,3.07-2.61,8.88.44,4.6.57,4.71,1.87,2.14,7.78-16.39,1.93,2.81,1.16,5.95-1.26,3.08-1.23,3.34,1.21,4.01,1.11.41,2.37-.1,2.88-1.05.48-1.21.86-.98,1.03.8.19,5.32,3.4-3.18,2.47-4.1-1.02-1.47,1.05-4.3,1.73-1.84.08.89,2.41-3.45,5.27-9.65,2.73-6.32,5.28-10.81,5.59-10.07.75,1.6-3.24,11.01-4.66,11.14-3.75,10.92-7.67,24.79-12.26,38.93-2.63,8-5.72,18.79-5.87,12.16-.11-2.7-3.06,6.61-1.95,7.02.46,1.12.26,1.52-.36,1.19-1.63-.88-3.37,5.86-2.37,8.86.5,1.5.31,2.03-.56,1.6-1.12-.54-1.11-.41.07.77,1.83,1.76,1.28,4.65-1.55,8.78-2.05,2.53-1.5,6.13.63,2.9,1.69-3.51,1.24-.76-1.96,11.91-1.61,6.86-3.41,14.24-3.92,16.35-1.68,7.38-2.6,6.43-1.6-1.78.52-4.56,2.04-11.15,3.24-14.74,2.73-7.61,2.71-9.02.35-8.8-2.54.37.07-3.94-2.25-3.65-4.15-.21-7.67,36.72-11.98,38.13-2.7,3.3-5.95.48-7.72,6.41-.99,2.16-1.31,3.73-.76,3.29,1.44-1.17,2.86,2.56,4.21,10.43.85,6.23,2.27,13.07,3.7,18.85-15.15,1.54-43.34,4.02-54.33,7.23-28.74,5.97-60.14,7.31-93.08,16.71-9.65,2.46-16.58,3.51-28.21,3.84-55.15,1.29-99.83,14.54-153.14,21.99-30.97-8.06-111.76-8.38-179.39-.94M2205.04,646.76c-1.66,2.61-1.88,2.76-1.13.62,2.98-9.01,4.71-5.61,1.13-.62ZM2199.17,594.99c-6.69,34.3-10.91,42.33-16.24,55.93-2.58,3.78-.92,5.6-3.59,8.59-1.61,1.83-1.74,1.71-1.4-.9.31-1.71-.04-2.96-.52-2.92-.94.09-2.31,4.47-2.32,6.92-.95,4.7-7.53,9.41-10.18,15.66-3.16,6.79-7.27,9.52-9.51,16.5-.77,4.36-10.78,15.62-11.9,18.92-1.97,5.16-28.3,35.7-11.31,11.26,3.15-4.42,5.74-8.54,5.69-9.05-.06-.64.49-1.08,1.08-1.13.71-.07,1.1-1.01,1-2.03-.1-1.02,2.46-5.39,5.62-9.81,16.35-23.49,28.83-54.65,36.63-69.34,3.46-4.51,14.22-41.3,16.85-45.68,1.91-2.5,1.92-2.37.08,7.08ZM2179.01,464.42c-2.87,16.26,3.43,15.1-18.71,13.64-.42-1.9-78.31,5.29-52.94,9.29,6.66,1.17,4.55,1.5-35.94,5.22-33.88,3.09-42.93,4.34-42.69,5.61,5.28,3.68-70.36,8.23-69.37,10.59.65.58,2.26,1.2,3.58,1.33,4.85.25-4.59,3.23-3.41,5.48.36,1.25-1.51,1.69-7.18,2.1-14.34.72-22.68,1.9-25.63,3.47-4.48,2.41-22.64,4.57-27.5,6.35-3.23,1.08.09.89,9.96-.43,32.19-4.61,35.25-5.03,35.29-4.52.04.38-1.66,1.32-3.61,2.15-3.31,1.47-3.06,1.58,2.68.65,6.22-.98,16.46-.92,22.64.17,19.03,2.96,37.44-4.28,54.94-2,1.04.93-1.05,1.52-6.7,2.18-7.3.82-6.45,1,7.14,1.25,8.46.1,15.64.45,15.91.81,3.93,24.16-4.26,39.12-10.92,60.45.79,1.27-14.74,32.68-13.07,34.11-3.83,20.03-60.18,75.75-87.16,85.23-11.56,6.13-22.67,12.08-24.59,13.17-11.58,11.81-7.72-46.98-13.27-45.65-1.22-.27-2.09.59-2.31,2.02-.44,2.88-2.87,3.62-3.13.94-.22-2.3-7.34-7.04-8.77-5.87-1.28,1.09-3.01-4.18-1.59-4.23,1.48-.38-2.11-4.97,1.09-3.58,2.9,1.02,2.14-3.22.07-2.97-.94.09-2.05-.32-2.59-.91-.97-1.45-3.41-15.79-4.95-29.56-.64-5.48-1.54-9.91-2.13-9.85-1.2.07,1.58,19.99.71,20.04-1.33,1.25-12.47-19.34-8.77-23.4,1.08-1.13,1.05-1.52-.18-1.92-1.97-.55.16-3.12-1.45-3.99-1.76-.99-3.69-7.51-2.27-7.65,1.8-.33,1.11-2.79-.83-2.5-2.36.22-1.78,5.07,2.8,23.19,4.59,18.25,6.79,36.34,4.8,37.95-1.11.88-1.17,5.27-.47,15.12,1.14,15.74,2.08,36.92,1.74,40.82,2.42,23.41-89.29-12.93-86.92-17.51-12.14-11.09-53.8-41.99-57.05-50.26-1.83-3.23-15.99-21.14-17.87-23.82-6.01-10.54-18.42-41.05-21.14-51.99-.99-4.16-.97-6.48.03-7.22,1.17-1.31,59.6-5.7,60.65-7.06,5.78-2.52-8.52-.64-9.71-1.91-1.3-1.16.36-4.93,2.37-5.12,1.06-.1,2.43-.75,2.97-1.31,2.66-3.34,18.1-7,23.6-8.56,5.37-1.4,60.38-7.57,37.76-9.91,3.59-3.06,6.69-3.76,13.96-4.68,12.83-1.7,12.62-4.5-2.75-1.41-20.63,4.11-24.52,3.1-28.78,2.86.48,1.6-18.04,2.28-17.48,3.98.15,1.53-29.88,2.58-30.98,1.01-.7-1.09-13.4-.66-17.69.52-.55,1.11-10.07-1.59-8.98.72,1.3,1.94-1.66,1.77-1.65.16-.1-1.02-.79-.83-1.98.45-2.82,3.19.69-1.8-2.14-1.21-1.75-.35-2.44,3.96-3.48,2.26-2.56-2.05-16.37,2.39-15.65-1.74.28-.8,2.34-1.64,4.35-1.83,5.87-.88-9.12-1.85-10.44-2.1-.4-6.3-1.81-19.47.53-23.25,4.7-11.35,26.83-76.83,33.67-86.72,10.98-23,12.34-22.19,35.74-41.16,16.34-14.59,39.9-32.25,60.87-37.36,4.85,11.98,7.15,49.26,9.97,61.05.59-.06.91-.47.86-.98-.98-3.56.75-6.02,2.59-2.82.31.74.4.48.04-.78-.47-2.4,2.26-4.98,4.71-4.31,2.04.93-.09,4.13,2.47,5.95,3.53,4.34,2.83-5.5,4.77.06.49,1.37.37,2.67-.22,2.73-1.77.17-.33,9.05,1.75,10.92,1.3,1.17,2.22,4.56,2.82,9.66.36,5.86,2.77,14.81,1.43,18.81-.59.06.5,1.5,2.33,3.26,8.31,8.82-1.5,2.18,1.94,5.36,1.89,1.18.04,4.8,1.78,4.99,1.47,1.15,4.22-13.43.43-14.22-2.66,2.43-3.27-15.51-4.09-20.49,2.07,3.76,4.99,9.57,5.34,13.54.32,2.16,1.13,4.4,1.88,4.72,1.63.88,1.88,9.75.36,11.31-1.71,2.24,4.04,2.08,1.09,5.18-.72,1.23-.82,2.66-.3,3.12,1.77,1.24,1.24-4.27,2.98-1.19,3.18,4.6,1.13-13.13-3.24-27.79-.51-1.63-.42-3.18.03-3.48,1.48-.44,5.42,14.54,6.52,14.72,1.59,1.65,1.02-1.77-1.86-9.49-1.95-5.49-5.4-25.52-6.63-38.42-.12-1.28-1.08-2.6-2.06-2.9-2.08-.58-2.78-5.41-.62-5.23,2.2.72-.82-10.96.95-11.3,1.66-1.32.17-14.45-1.67-15.05-1.1-.28-1.67-2.55-1.77-7.31-.13-5.14.11-6.33,1-4.48,2.04,2.86-1.46-15.23,1.56-13.68,2.45-.87,1.89,7.58,3.8,7.37.71-.07.96-1.12.48-2.49-1.65-4.87.26-6.08,9.56-5.94,46.42-2.65,123.31,42.7,142.95,71.99,18,24.64,16.71,33.73,32.2,53.13,6.15,6.53,18.5,19.69,14.6,8.28-6.55-17.85,7.23,3.91,10.62,9.04-.33-2.42-4.53-19.06-.21-13.51.07.77.59,1.23,1.18,1.18,1.18-.11-1.11-9.17-4.24-15.84-2.51-5.16-8.02-22.75-12.31-26.8-4.2-4.11-8.63-10.65-8.86-13.08-.56-5.88-7.27-12.58-42.75-42.59-16.01-12.29-37.75-32.09-49.64-32.4,1.11,2.42-3.36,1.22,3.25,5.36,7.6,4.82,3.68,3.65-13.1-3.78-22.63-10.17-5.08-4.31-10.7-7.36-9.49-5.2-43.95-11.24-47.31-11.61-3.46-2.26-19.43.02-25.9.66-1.76-12.46-2.96-27.71-3.14-40.56-.11-6.18.3-8.15,1.71-8.28,1.3-.12,1.58-.92.91-2.92-1.12-2.99,2.24-8.98,5.07-9.25,2.21-.27.37-7.93,2.03-8.7,1.55-1.18-.52-9.23-4.78-19.01-2.72-6.06-8.02-31.72-7.25-34.88.42-1.84,2.15-2.4,9.1-3.19,16.05-2.38,24.9-3.34,45.04.36,5.44,1.65,11.44-.15,15.06,1.79,7.61,1.45,28.01,2.8,39.96,7.03,4.05,1.29,9.3,2.59,11.69,2.75,4.44.35,17.72,6.05,19.11,8.11.53.59,1.64,1,2.71.9,10.29,3.72,43.7,21.12,43.22,25.02.13,1.41,8.83,7.67,16.63,12.08,4.91,2.76,28.61,24.09,34.11,30.65,17.65,21.03,12.95,17.15,22.46,34.6,5,10.28,14.02,23.18,18.24,32.81,3.02,4.22,3.51,5.59,1.76,4.73,1.01,9.62,16.48,36.24,24.48,57.09,13.82,32.35,16.21,35.94,30.47,60-.15-2.23-.46-6.73-.61-8.96,8.49,19.48,4.91-5.27,6.41-10.28.95-2.92-1.43-13.82.75-12.19,2.86,2.56,3.39,15.66,1.03,27.1ZM2176.78,434.73c-5.12-6.34-1.25-13.74.76-2.01.29,1.78-.11,2.59-.76,2.01ZM2182.83,577.22c-1.78,9.49-6.88,20.68-7.75,29.99-.59,6.37-2.28,13.62-5.52,24.63-1.1,3.46-.99,4.61.14,5.27,1.76.99-2.69,15.59-9.36,30.53-18.68,34.34-41.02,79.07-78.49,102.45-5.48,3.74-12.05,8.49-14.47,10.65-5.6,6.18-20.41,11.39-28.29,16.87-17.61,14.32-32.07,18.15-53.85,34.77-3.82,3.36-6.53,1.98-7.67,5.75.7,2.87-14.48,7.21-14.07,9.84-.57,5.44-35.89,17.14-41.43,17.6-2.01.19-2.32-.55-2.82-7.08-.09-8.65-2.76-8.84-1.58-16.6.97-5.95-1.23-38.39-1.97-49.56,2.47,2.4,5.43,5.99,6.71,9.16.89,1.85,1.73,3.19,1.94,2.91-.02-5.77-12.59-23.69-10.44-29.68,1.77-1.46-1.23-17.93-4.06-22.68-2.42-2.95-1.83-8.26-3.92-9.94-1.58,1.06.42,6.56-.63,8.44-.51,2.11-.74,2.26-.91.47-.23-1.14-1.04-2.22-1.79-2.54-2.76-.04,1.64-5.97-.4-6.66-3.13-1.64-.75-2.89,8.27-4.4,11.02-1.82,14.04-2.62,24.79-7.25,6.49-3.47,10.73-2.4,13.94-6.22,3.04-4.58,22.49-18.46,30.91-21.76,4.32-.93,9.33-5.78,22.11-21.69,25.78-31.97,35.15-44.84,34.25-46.82-1.34-3.05,1.87.09,4.06-6.19,4.81-11.02-5.09,7.3-.31-7.06.61-2.7-2.19-2.15-1.89.18.1,1.02-.29,1.96-.76,2.01-4.31-2.97,5.21-19.25,6.25-25.73,3.44-11.41,4.39-13.95,4.9-13.61.2,1.64-4.46,19.04-.15,8.39,2.43-6.09,7.4-13,10.16-18.37,3.2-1.74-.37-13.93-2.56-15.61-2.32.71-1.01-22.16-1.02-26.97,5.62.08,12.77.55,18.27,1.74,6.57,1.44,8.13,1.55,33.81,1.17,19.38-.3,19.5-.31,21.14.7.22.98,18.78-.04,17.04,2.63-.24,1.18,1.36,1.8,5.78,1.9,7.14,1.28,23.63-2.86,30.33-2.88-.91,3.42-4.36,13.97-2.55,18.29,1.4,3.48.52,10.24,4.27,8.62,2.29-.99,2.33.68-.42,14.35ZM2159.63,336.99c-1.47-1.27-3.74-7.77-.36-3.83,1.59,1.46,3.91,8,.36,3.83ZM2147.49,317.01c-1.59.23.38-2.57-.95-2.49-.94.09-5.06-6.87-5.36-8.77.58-.61-5.54-5.73-3.18-5.88,1.41-.41,13.89,18.95,9.49,17.14ZM2130.19,290.3c-2.26.27-2.54-2.31-.24-2.55,2.31-.19,2.52,2.4.24,2.55ZM2112.37,272.01c-3.51-3.15-6.57-6.46-6.65-7.36-.09-.89-.98-1.58-1.93-1.49s-1.87-.85-1.99-2.13c.3-2.22-9.02-10.57-9.49-12.12-.07-.77-5.74-6.54-14.89-15.08-6.67-6.33-2.34-4.55,5.32,2.07,3.5.43,51.76,54.39,29.63,36.11ZM2133.06,527.17c-.47.04-1.25-.65-1.7-1.64-1.39-3.62,6.75.48,1.7,1.64ZM2106.42,528.8c-5.46-1.09,3.04-3.02,2.32-.61-.29.67-1.33,1.03-2.32.61ZM2113.89,751.32c-2.48,4.04-6.18-.38-3.6-.3,1.2.64,5.07-5.09,5.62-3.5.06.64-.84,2.4-2.02,3.8ZM2106.91,759.33c-2.13,1.36-4.34,1.96-4.75,1.35s-.23-1.14.48-1.21c1.48.2,4.83-6.28,6.66-5.14,2.38,1.19,1.66,2.42-2.38,5ZM2048.38,241.5c-2.89-2.33,3.15-.21,2.21.69-.32.42-1.3.12-2.21-.69ZM2042.34,236.79c-3.93-2.46-5.91-4.59-4.5-4.73,1.7.15,14.25,10.98,4.5,4.73ZM2010.8,220.71c-10.59-6.21-23.62-12.96-28.92-14.91-10.5-4.03-12.13-6.06-3.09-3.7,16.03,3.92,84.08,48.37,32.01,18.61ZM2014.5,217.01c-4.89-4.02,3.74.18,2.98,1.26-.44.43-1.68-.1-2.98-1.26ZM1998.97,208.95c-.91-.82-1.09-1.44-.38-1.51,3.26-.34,3.48,4.07.38,1.51ZM2034.99,622.85c-1.58,3.94-1.47-2.82-.3-3.19,1.44-1.17,1.59.49.3,3.19ZM2025.83,615.47c-3.64,6.79-18.07,26.59-26.36,35.89-.08-2.45,20.97-30.9,28.04-43.26,3.82-6.16,2.54-.89-1.68,7.38ZM1970.81,701.77c-21.63,15.33,9.27-10.16,9.03-7.69-.83,1.24-4.92,4.59-9.03,7.69ZM1850.47,176.28c-14.43,3.56-14.78,3.6-15.28-1.64-.38-3.96-.07-4.5,2.53-4.75,3.07-.29,4.19,1.53,1.81,2.79-2.02,1.45,3.16.54,3.16-.56,7.99-3.14,31.22-.92,7.78,4.16ZM1925,1040.32c-.36-1.25-.55-3.3-.43-4.47.23-1.31.57-.31.8,2.12.23,2.43.09,3.47-.37,2.36ZM1893.81,723.53c-.39-.35-.62-1.49-.35-2.42.65-2.57,1.37,3.72.35,2.42ZM1888.5,696.45c-.93,2.12-2.92.8-2.35-2.22.16-2.08-.34-3.58-1.44-3.86-.98-.29-1.81-1.5-1.8-2.66-.26-2.93,1.32,1.46,2.47.92.71-.07.78-.59.35-1.32-.41-.6-.36-1.25.35-1.32,1.65-.16,2.81,4.5,2.42,10.47ZM1840.45,267.58c-.59.06-1.24-.53-1.31-1.29.14-2.16,4.4,1.21,1.31,1.29ZM1841.65,405.37c-1.43.38-2.34-6.05-.24-2.55,1.65,2.29,1.66,2.42.24,2.55ZM1827.96,273.92c-1.49.19-1.76-2.37-.24-2.55,1.56-.14,1.79,2.49.24,2.55ZM1841.86,420.17c-1.42,1.2-1.99-4.74-.36-3.83,1.63.76,1.82,2.78.36,3.83ZM1838.44,396.66c-3.04.47.6-3.62,1.05-1.52.07.77-.34,1.45-1.05,1.52ZM1861.98,681.83c-1.47.38-2.6-11.59-1.09-11.5,1.51-.42,2.66,11.62,1.09,11.5ZM1860.02,668.74c-.39-.35-.62-1.49-.35-2.42.65-2.57,1.37,3.72.35,2.42ZM1868.52,788.18c-1.5.14-1.87-3.69-.36-3.83,1.54-.18,1.91,3.72.36,3.83ZM1829.27,412.99c-.69,1.48-1.1,1.01-1.4-2.19-.78-7.29,4.13-1.72,1.4,2.19ZM1857.14,779.98c.66,7.87-2.19,2.84-1.02,6.8.64,1.74.24,2.55-1.05,2.68-2.39-.03-2.23,3.41.08,2.05,1.03-.48,1.77-.17,1.88.98.21,2.6-3.33.09-3.66,2.8-2.54,4.51-5.55,1.11-6.72,13.27-.26,3.5.56,7.16,2.57,12,5.08,12.15,8.53,28.32,8.89,40.91.12,6.3.14,11.46-.1,11.48-8.94-.02-24.94-5.25-33.26-6.63-6.06.02-9.42-4.5-14.81-4.26-15.61-2.41-33.4-7.15-50.13-11.21-11.28-3.76-12.39-2.11-19.85-4.69-3.2-1.93-7.4-.42-9.63-2.31-15.07-3.76-41.72-29.34-59.84-42-16.56-10.39-49.66-41.33-69.61-57.05-3.93-.92-4.69-9.58-7.25-8.59-2.89,1.36,1.91-4.25-1.48-5.53-3.43-4.12-2.29-7.71-6.83-14.17-5.46-8.86-8.81-18.33-14.9-26.42-15.05-23.93-12.56-36.17-25.55-68.33-2.56-6.85-3.88-12-3.3-12.19,5.01-2.36,6.83-7.95-1.77-9.88-4.28-1.14-6.05-3.55-6.73-9.41-.39-2.8.03-3.48,1.73-3.13,17.87,1.46,35.14-.39,51.88-4.16,8.67-1.47,13.79-2.73,14.97-4.13,1.4-1.55,5.51-2.2,18.51-3.18,24.71-1.83,30.18-1.97,31.48-.8,1.85,1.89,4.56,15.42,2.62,13.8-.78-.7-1.72-3.06-1.94-5.36-.9-7-2.17-4.05-1.56,3.63-.71.51,6.5,31.71,9.54,26.42,1.57-3.32,1.85,1.37,4.02.91.83-.08,3.31,3.55,5.43,8.25,3.6,8.01,15.65,24.67,19.88,31.23,4.96,7.27-4.23-3.36-5.8-4.6.65,1.64,4.9,9.04,3.27,9.36-.71.07-.88.73-.47,1.33,3.12,2.33,2.58-3.44,4.12,5.79,5.72,13.09,13.79,15.84,26.48,28.03,23.53,23,72.88,43.11,98.53,53.14-.17,1.46,5.19,1.51,4.12-.52-1.91-2.53,23.31-1.57,33.72,1.43,2.73.73,2.83,29.44,3.54,32.27ZM1814.92,386c-.81,2.78-.99,2.16-1.45-3.99-1.38-13.13,4.98-3.94,1.45,3.99ZM1815.06,396.3c-4.19-.09,1.22-6.3,1.69-2.22.11,1.15-.63,2.12-1.69,2.22ZM1796.81,333.34c-3.51.75-6.82,5.19-10.49,4.86-5.63.4,12.84-10.61,12.39-9.94,2.48-.24.78,4.44-1.9,5.08ZM1793.77,338.91c-4.12.52-2.66-.39,2.69-1.8,3.24-.95,3.96-.89,2.4.16-1.24.76-3.55,1.5-5.08,1.64ZM1794.49,311.39c-19.72,4-20.25,7.75-37.32,19.53-6.49,4.35-12.36,9.04-13.06,10.39-.69,1.48-2.37,2.67-3.55,2.79-2.96.23-2.71,2.97-5.66,3.12-5.96,2.16-16.06,11.07-22.73,15.18-5.5,3.49-8.54,6.61-11.09,11.11-8.3,15.66-13.14,20.31-19.1,30.81-1.17,3.98-7.21,14.35-8.1,13.79-.61-.2-1.73.55-2.44,1.91-1.35,2.06-1.22,2.18.51.34,2.17-2.27,2.67-.77.57,2.27-2.39,3.71-11.26,26.85-11.05,29.02.32,3.99,3.8-2.32,3.21-3.79-.11-3.6,2.36-1.97,3.11-6.1,1.03-4.22,10.97-23.6,13.56-26.42,1.73-1.84,1.74-1.71.61,1.36-.66,1.87-3.93,8.75-7.23,15.38-6.89,13.93-10.58,23.95-14.46,39.52-2.7,10.44-2.91,10.72-2.72,5.16.1-6.45-.85-7.65-3.08-3.57q-1.34,2.19-1.65.16c-2.87-9.59-7.97,17.94-5.48,16.24.59-.06.96-1.12.85-2.27-.12-1.28.83-3.82,1.96-5.73,1.55-2.47,2-2.77,1.69-1.06-3.76,18.66-3.91,37-1.51,54.27-12.08-.48-56.13,2.9-55.43-1.82.51-.95.26-1.06-.64-.46-1.66,1.7-5.31-2.39-6.55-2.47-.47.04-1.81-.21-2.92-.62-14.04-.73-42.02,8.37-58.32,9.03.89-23.6,4.2-55.92,12.66-77.25,4.43-7.54,6.4-25.64,10.93-35.32,4.4-8.08,9.06-22.98,14.68-32.2,8.45-15.11,12.87-24.94,11.92-26.14-3.07-3.25,10.01-16.75,6.79-17.53-2-13.88,50.96-70.92,52.49-74.07,9.18-9,22.76-15.42,34.56-23.52,14.23-9.34,21.25-13.23,24.91-13.58,1.65-.16,4.49-1.59,6.48-3.19,5.04-4.06,6.33-2.38,11.91-6.29,9.57-5.15,28.59-12.6,36.65-19.08,2.65-2.18,7.07-4.54,10.42-5.63,4-1.91,6.68,4.43,10.48,3.77,2.95-.28,3.97,2.97,2.25,7.39-1.2,3.28-.36,13.33-1.75,16.66-.43,1.15-5.11,13.69-.82,7.68,2.02-2.51,2.15-2.4,3.32,2.39,1.86,7.04,1.85,6.91.45,11.04-3.19,8.19,6.21.68,7.69,24.53-.15,3.41,8.14,37.4,7.43,24.3,1.72-17.06,6.89,8.86,4.54,8.98ZM1839.76,911.55c-6.13-.58-11.82-1.58-12.84-2.26-1.28-.91-1.75-.86-1.65.16.25,1.71-3.29,2.17-3.52.59-.05-.51-1.37-.64-3-.23-3.11,1.07-6.68-1.43-6.99-4.62-.63-2.21,4.55-3.43,3.98-.76-.24,1.18,1.11,1.7,4.67,1.49,10.64.08,49.9,8.54,19.35,5.64ZM1774.07,206.87c-2.01.19-4.98-1.07-5.09-2.22,1.14-2.85,8.83-1.26,5.09,2.22ZM1813.27,723.07c-5.96-1.37-8.68-2.4-8.15-3.09.32-.42,2.87.11,5.69,1.01,5.28,1.69,7.09,3.19,2.46,2.09ZM1794.85,717.21c-22.2-8.07-32.92-13.11-43.26-20.38-9.57-6.69-8.19-8.5,1.81-2.23,11.65,7.94,42.34,20.93,49.75,24.78-.32.42-4.11-.64-8.31-2.17ZM1754.78,338.36c-21.25,13.07,1.38-4.5,7.23-6.62,2.83-.27.76,1.73-7.23,6.62ZM1742.07,689.37c-.36,0-8.71-7.23-2.59-3.49,2.39,1.32,3.89,3.37,2.59,3.49ZM1756.05,902.76c-1.79-.84-3.78.35-4.21-1.66-.13-1.41,3.72-2.16,5.04-.87,1.68,1.39,1.13,3.11-.83,2.53ZM1731.42,680.07c-1.03-.8-1.98-2-2.05-2.77.34-1.88,6.76,6.67,2.05,2.77ZM1744.62,900.24c-5.13-1.32-4.81-3.02.3-1.83,5.27,1.2,4.55,3.29-.3,1.83ZM1709.98,560.95c-18.18,3.21-3.95-4.37,1.55-2.47.52.47,1.7.35,2.73-.13,1.37-.65,1.62-.54.89.56-.52.82-2.93,1.7-5.16,2.04ZM1697.86,663.93c-.44.12-6.14-5.87-1.79-2.54,2.05,1.48,2.73,2.45,1.79,2.54ZM1656.93,254.74c-1.87,1.6-2.49.11-.65-1.87,2.34-2.62,2.05,1.09.65,1.87ZM1640.56,265.45c-1.04-.93,7.58-6.65,8.97-5.88,1.85.98-8.91,6.79-8.97,5.88ZM1678.87,598.2c-4.01-5.81-9-28.27-6.72-29.39,2.13-.92,5.05,22.37,6.34,22.85.68.9,3.09,11.32.38,6.54ZM1614.24,294.24c-23.59,28.66-52.88,68.83-61.95,84.9-7.44,13.21-10.79,16.75-6.7,7.21,1.17-2.69,1.89-5.21,1.51-5.43-1.82-1.63,9.35-21.9,12.18-22.17,1.91.17,1.29-6.01,2.91-5.69.73.19,1.34-.9,1.56-2.34.56-4.18,16.66-26.46,18.62-25.87.98.29,1.32.13.91-.47-.43-.73,1.4-2.84,3.94-4.89,6.28-5.13,1.76-2.48,2.28-4.86.4-.81,1.65-1.45,2.85-1.3,2.16.18,11.99-11.71,11.74-14.26-.06-.64,1.53-2.72,3.62-4.47,10.45-9.96,32.75-32.85,6.51-.36ZM1597.65,575.63c-9.48.51-13.51-.52-8.56-2.41,8.38-2.79,27.76.84,8.56,2.41ZM1554.75,382.39c-12.61,23.16,1.18-6.92,2.97-8.79,2.21-1.76,1,1.71-2.97,8.79ZM1573.4,573.55c-2.91-.62,5.48-1.32,3.54-.34-.8.33-2.45.49-3.54.34ZM1547.41,331.53c-1.76.12,1.56-4.23,1.76-4.03.72.44-.75,4.21-1.76,4.03ZM1544.53,336.32c-5.53,6.11.89-3.64,2.08-3.16.04.38-.9,1.76-2.08,3.16ZM1539.98,401.19c-1.67.86,1.41-6.64,2.05-5.99,1.18-.11-.39,4.68-2.05,5.99ZM1533.43,357.35c-5.24,8.08.54-5.46,1.95-4.57.06.64-.82,2.66-1.95,4.57ZM1528.41,481.04c-2.05,2.61-.72-7.15.62-7.28,1.18-.11.6,6.26-.62,7.28ZM1528.47,487.99c-.45.28-1.51-5.57.28-4.54,1,.55.78,4.44-.28,4.54ZM1516.68,381.5c-.67.45-.84-.05-.58-1.1,1.13-4.71,2.54-.09.58,1.1ZM1514.8,386.83c-.67.45-.84-.05-.58-1.1,1.13-4.71,2.54-.09.58,1.1ZM1546.37,737.62c-4.25-5.17-16.58-19.76-16.81-26.5.29-1.96-.02-2.71-.8-2.12-1.95,1-1.31-2.11.41-1.97,2.77.37,4.66,9.02,16.78,27.4,2.81,4.5,2.86,5.01.42,3.18ZM1512.93,392.16c-1.86,1.15-1.24-1.97-.24-2.55,1.86-1.16,1.32,1.98.24,2.55ZM1507.87,377.82c-1.42.13-1.35-.39-.07-4.5,3.55-9.51,2.49,3.97.07,4.5ZM1521.71,497.01c-1.86,1.15-1.24-1.97-.24-2.55,1.86-1.16,1.32,1.98.24,2.55ZM1527.28,705.92c-.59.06-1.27-.78-1.37-1.93.08-3.75,4.44,1.5,1.37,1.93ZM1528.23,728.39c-.63-.33-1.33-1.42-1.4-2.19-.09-.89.4-.81,1.22.27,1.65,2.29,1.7,2.8.18,1.92ZM1525.16,708.7c-1.99-.21-1.25-2.71-2.34-4.55-2.54-4.54,6.12,4.81,2.34,4.55ZM1365.06,602.77c-1.49.19-1.76-2.37-.24-2.55,1.56-.14,1.79,2.49.24,2.55Z"/>
      <path class="cls-1" d="M2046.26,474.59c-.27.93-.04,2.07.35,2.42.4.48.68-.32.43-1.72-.13-1.41-.52-1.75-.78-.7Z"/>
      <path class="cls-1" d="M1964.81,529.76c-2.94-.88-6.58-.28-6.45,1,.18,1.92,4.76,2.51,6.77,1.03,1.67-1.19,1.65-1.45-.31-2.03Z"/>
      <path class="cls-1" d="M1922.54,330.66c-1.38-.77-2.84-1.02-3.04-.61-.21.28.94,1.07,2.66,1.68,3.71,1.45,3.98.52.37-1.07Z"/>
      <path class="cls-1" d="M1921.63,577.82c-1.69-1.51-2.92-.62-2.66,2.06.13,1.41.82,2.37,1.62,2.04,1.59-.8,2.21-3.05,1.04-4.09Z"/>
      <path class="cls-1" d="M1895.72,386.7c-1.89-1.11-2.7.39-1.53,2.72.46,1.12,1.34,1.55,2.01,1.1,1.44-1.17,1.27-2.96-.48-3.82Z"/>
      <path class="cls-1" d="M1897.21,501.27c-.63-.33-1.17.24-1.07,1.26.11,1.15.78,1.99,1.37,1.93.71-.07,1.13-.62,1.07-1.26-.07-.77-.63-1.62-1.37-1.93Z"/>
      <path class="cls-1" d="M1886.98,450.04c-1.18.11-1.69,1.06-1.32,2.44.73,2.64,2.83,2.18,3.04-.55.11-1.3-.55-2.01-1.73-1.9Z"/>
      <path class="cls-1" d="M1876.31,463.04c-1.1-.28-2.16-.18-2.48.24-1.06,1.39,1.4,5.92,3.17,5.76,2.24-.21,1.65-5.18-.69-5.99Z"/>
      <path class="cls-1" d="M1886.67,578.31c-1.63-.88-3.73.87-2.76,2.32,1.09,1.44,4.28,1.14,4.13-.39-.07-.77-.63-1.62-1.37-1.93Z"/>
      <path class="cls-1" d="M1886.3,610.69c-.64-.45-1.44-.12-1.73.55-.41.68-.09,1.56.54,1.88.64.45,1.44.12,1.73-.55.41-.68.09-1.56-.54-1.88Z"/>
      <path class="cls-1" d="M1851.21,370.7c-.78-1.99-1.99-3.42-2.7-3.35s-.86.98-.41,1.97c.57.98.44,2.15-.22,2.73-.55.44-.66,1.87-.18,3.11.62,1.49.11,2.44-1.61,3.12-1.72.68-2.11,1.62-1.35,3.35.49,1.37.4,2.93-.26,3.5-.55.44-1.03,1.64-.96,2.41.09.89.54.72,1.14-.5.68-1.61,1.28-1.54,3.6.3l2.84,2.31-.54-3.17c-.99-5.45-.75-6.63,1.21-6.04,2.2.56,1.85-4.3-.57-9.74Z"/>
      <path class="cls-1" d="M1867.9,546.2c-2.08-1.86-3.49-1.6-3.27.7.1,1.02,1.24,1.81,2.54,1.69,2.71-.26,2.81-.52.73-2.39Z"/>
      <path class="cls-1" d="M1847.14,362.96c-.66.58-.81,1.49-.4,2.1,1.23,1.69,1.9,1.24,1.69-1.06-.1-1.02-.74-1.48-1.29-1.04Z"/>
      <path class="cls-1" d="M1873.23,651.12c-.59.06-.95,1.25-.82,2.66.13,1.41.71,2.51,1.19,2.46s.83-1.24.82-2.66-.48-2.53-1.19-2.46Z"/>
      <path class="cls-1" d="M1839.39,356.61c-.59.06-1.1,1.01-.99,2.16.1,1.02.74,1.48,1.29,1.04.67-.45,1.06-1.39.99-2.16-.06-.64-.58-1.1-1.29-1.04Z"/>
      <path class="cls-1" d="M1862.68,614.1c-.63-.33-1.17.24-1.07,1.26.11,1.15.78,1.99,1.37,1.93.71-.07,1.13-.62,1.07-1.26-.07-.77-.63-1.62-1.37-1.93Z"/>
      <path class="cls-1" d="M1857.54,607.63c-.98,1-1.95,1.99-2.07,2s.78.7,1.92,1.36c1.88.98,2.21.69,2.19-2.01-.04-2.96-.29-3.07-2.03-1.35Z"/>
      <path class="cls-1" d="M1848.19,555.55c-.94.09-1.69,1.06-1.59,2.08.1,1.02,1.01,1.84,1.95,1.75s1.69-1.06,1.59-2.08-1.01-1.84-1.95-1.75Z"/>
      <path class="cls-1" d="M1856.22,646.29c-1.09-1.44-1.3-1.17-1.08,1.13.16,1.66.71,2.51,1.39,2.06,1.33-1.03,1.34-.9-.3-3.19Z"/>
      <path class="cls-1" d="M1856.83,652.68c-.82-1.08-1.3-1.17-1.22-.27.07.77.77,1.86,1.4,2.19,1.51.89,1.46.38-.18-1.92Z"/>
      <path class="cls-1" d="M1857.19,656.51c-.71.07-1.1,1.01-1,2.03s.42,1.89.65,1.87.62-.96,1-2.03c.26-1.06-.06-1.93-.65-1.87Z"/>
      <path class="cls-1" d="M1852.33,629.13c-.26-.23-.67-2-.95-3.78-.3-1.9-1.06-3.64-1.79-3.82-1.58-.37.27,7.84,3.07,13.5,1.35,2.96,1.34,2.84.85-1.11-.35-2.42-.9-4.43-1.17-4.79Z"/>
      <path class="cls-1" d="M1829.03,419.2c-.16.79-.02,2.32.3,3.19.43.73.6.07.43-1.72-.17-1.79-.47-2.4-.74-1.48Z"/>
      <path class="cls-1" d="M1852.82,671.88c-1.51-.89-2.7,1.67-1.6,3.25.43.73,0,1.29-.94,1.38-2.48.24-3.18,5.33-1.09,7.32,1.04.93,2.36,1.06,3.25.34,1.78-1.33,2.01-11.4.38-12.28Z"/>
      <path class="cls-1" d="M1853.52,718.08c-.55.44-.68,1.61-.11,2.59,1.08,2.6,1.76,2.28,1.46-.91-.13-1.41-.69-2.25-1.35-1.68Z"/>
      <path class="cls-1" d="M1833.04,584.05c-1.42-1.15-2.36-1.06-3.21.05-1.59,2.08.3,5.64,2.73,4.9,2.67-.77,2.92-3.11.48-4.94Z"/>
      <path class="cls-1" d="M1822.78,529.99q-4.39.16-.74.97c1.95.46,3.97.4,4.39-.16s-1.17-1.05-3.65-.81Z"/>
      <path class="cls-1" d="M1822.16,526.06c-1.65.16-2.22.47-1.36.77.73.19,2.15.05,2.95-.28.67-.45.06-.65-1.59-.49Z"/>
      <path class="cls-1" d="M1831.88,615.74c-1.63-.88-3.5.72-3.3,2.89.17,1.79,3.16,3.18,4.23,1.92.94-1.38.45-4.04-.93-4.81Z"/>
      <path class="cls-1" d="M1807.55,471.25c-.87-.43-1.83-.47-2.15-.05-.95,1.25.7,2.38,2.29,1.59,1.25-.63,1.23-.89-.15-1.53Z"/>
      <path class="cls-1" d="M1808.37,623.9c-2.57-1.95-5.45.26-5.12,3.71.35,3.7,3.33,4.97,5.6,2.56,2.05-2.26,1.83-4.56-.48-6.27Z"/>
      <path class="cls-1" d="M1794.11,525.37c-.9.6-1.67,1.19-1.65,1.45s.87.43,1.82.34,1.72-.68,1.65-1.45c-.06-.64-.91-.82-1.82-.34Z"/>
      <path class="cls-1" d="M1773.46,454.65c-3.9-3.5-9.83.55-8.5,5.83.98,4.03,4.2,5.4,7.69,3.26,3.15-1.97,3.54-6.65.8-9.1Z"/>
      <path class="cls-1" d="M1760.6,422.1c-.94.09-1.96.7-2.26,1.25-.79,1.75,1.72,4.35,3.05,3.32,1.77-1.46,1.21-4.76-.79-4.56Z"/>
      <path class="cls-1" d="M1780.68,647.03c-2.31-1.71-4.19-.25-3.89,2.95.12,1.28.86,2.75,1.48,3.08,1.38.77,4.57-1.98,4.42-3.64-.05-.51-.98-1.58-2.01-2.39Z"/>
      <path class="cls-1" d="M1769.67,545.1c-1.3.12-1.62.54-.64.83.86.3,1.91.08,2.23-.34.44-.43-.31-.74-1.59-.49Z"/>
      <path class="cls-1" d="M1739.76,527.32c-1.69-1.51-8.09-1.16-7.94.37.06.64,1.6,1.78,3.58,2.62,1.86.73,3.72,1.58,4.1,1.8,1.49.63,1.69-3.51.26-4.79Z"/>
      <path class="cls-1" d="M1706.19,602.56c-2.6.25-3.96.89-3.42,1.61.43.73,2.13,1.09,3.66.94,1.53-.15,3.14-.81,3.42-1.61.4-.81-1.07-1.19-3.66-.94Z"/>
      <path class="cls-1" d="M2150.9,665.96c-.59.06-.77.72-.35,1.32.43.73,1.07,1.19,1.42,1.15.24-.02.42-.56.35-1.32-.06-.64-.71-1.22-1.42-1.15Z"/>
      <path class="cls-1" d="M2126.95,713.35c-.59.06-1.12.75-1.05,1.52.06.64.68.84,1.23.4.67-.45,1.08-1.13,1.05-1.52-.02-.26-.52-.47-1.23-.4Z"/>
      <path class="cls-1" d="M2108.89,736.33c-.55.44-1.06,1.39-.99,2.16.06.64.7,1.09,1.29,1.04.71-.07,1.1-1.01.99-2.16-.1-1.02-.62-1.49-1.29-1.04Z"/>
      <path class="cls-1" d="M2045.55,601.22c-.24.02-.98,1-1.71,2.1-.72,1.23-.76,2.01-.05,1.94.59-.06,1.33-1.03,1.71-2.1.26-1.06.29-1.96.05-1.94Z"/>
      <path class="cls-1" d="M1657.92,627.12c-.55.44-1.05,1.52-.99,2.16.07.77.68.84,1.23.4.67-.45,1.05-1.52.99-2.16-.07-.77-.56-.85-1.23-.4Z"/>
      <path class="cls-1" d="M1650.83,602.67c-1.3,2.57-1.17,3.98.36,3.83.71-.07,1.06-1.39.91-2.92-.23-2.43-.48-2.53-1.28-.91Z"/>
      <path class="cls-1" d="M1648.69,617.69c-.55.44-1.08,1.13-1.05,1.52.02.26.64.45,1.23.4.71-.07,1.12-.75,1.05-1.52-.06-.64-.56-.85-1.23-.4Z"/>
      <path class="cls-1" d="M1581.29,685.32c-.59.06-1.12.75-1.06,1.39.07.77.71,1.22,1.3,1.17.71-.07,1.13-.62,1.06-1.39-.06-.64-.59-1.23-1.3-1.17Z"/>
      <path class="cls-1" d="M1569.27,671.64c-.55.44-.9,3.05-.54,5.59.36,3.83.64,4.19,1.27,2.07,1.08-3.71.6-8.69-.73-7.66Z"/>
      <path class="cls-1" d="M1760.43,315.14c-.59.06-1.12.75-1.06,1.39.07.77.71,1.22,1.3,1.17.71-.07,1.13-.62,1.06-1.39-.06-.64-.59-1.23-1.3-1.17Z"/>
      <path class="cls-1" d="M1755.38,324.65c-.59.06-1.12.75-1.06,1.39.07.77.71,1.22,1.3,1.17.71-.07,1.13-.62,1.06-1.39-.06-.64-.59-1.23-1.3-1.17Z"/>
      <path class="cls-1" d="M1714.74,310.47c-.59.06-1.12.75-1.06,1.39.07.77.71,1.22,1.3,1.17.71-.07,1.13-.62,1.06-1.39-.06-.64-.59-1.23-1.3-1.17Z"/>
      <path class="cls-1" d="M1659.49,354.38c-.71.07-1.47.78-1.77,1.46-.28.8.24,1.27,1.18,1.18,1.06-.1,1.84-.69,1.77-1.46-.06-.64-.59-1.23-1.18-1.18Z"/>
      <path class="cls-1" d="M1657.55,396.59c-1.76-.99-4.79.97-4.6,3.01.1,1.02.88,1.72,1.82,1.63,2.12-.2,4.4-3.77,2.77-4.65Z"/>
      <path class="cls-1" d="M1660.47,454.82c-.59.06-1,.74-.94,1.38.21,2.17-.05,3.23-1.53,5.17-.86.98-1.17,2.69-.73,3.55.45.99.29,1.78-.3,1.83-.71.07-1.12.75-1.06,1.39.07.77.95,1.2,1.89,1.11.94-.09,2.04-2.38,2.56-5.66,1.38-7.99,1.3-8.89.12-8.78Z"/>
      <path class="cls-1" d="M1644,518.25c-.59.06-1.12.75-1.06,1.39.07.77.71,1.22,1.3,1.17.71-.07,1.13-.62,1.06-1.39-.06-.64-.59-1.23-1.3-1.17Z"/>
      <path class="cls-1" d="M1581.09,432.73c-2.24.21-2.44.62-1.27,1.67,1.17,1.05,1.88.98,2.83-.27.95-1.25.68-1.61-1.56-1.4Z"/>
      <path class="cls-1" d="M1580.93,328.34c-.59.06-1.69,1.06-2.41,2.16-.73,1.1-.76,2.01-.05,1.94.59-.06,1.69-1.06,2.41-2.16.73-1.1.76-2.01.05-1.94Z"/>
      <path class="cls-1" d="M2361.03,451.36c-.94.09-1.69,1.06-1.59,2.08s1.01,1.84,1.95,1.75c.94-.09,1.69-1.06,1.59-2.08-.1-1.02-1.01-1.84-1.95-1.75Z"/>
      <path class="cls-1" d="M2327.66,419.74c-.59.06-1.12.75-1.06,1.39.07.77.71,1.22,1.3,1.17.71-.07,1.13-.62,1.06-1.39-.06-.64-.59-1.23-1.3-1.17Z"/>
      <path class="cls-1" d="M2308.02,433.59c-2.58-.79-4.8,2.13-2.85,3.88,1.69,1.51,5.14.16,4.94-1.89-.07-.77-.98-1.58-2.09-1.99Z"/>
      <path class="cls-1" d="M2303.41,429c-.74-.32-1.79-.09-2.22.47-1.27,1.67,1.05,4.8,2.61,3.62,1.54-1.31,1.37-3.09-.39-4.09Z"/>
      <path class="cls-1" d="M2292.62,453.23c-3.48-2.76-6.47-.42-5.98,4.69.41,4.34,4.44,5.38,7.19,1.76,2.22-2.92,2.02-3.8-1.21-6.46Z"/>
      <path class="cls-1" d="M2279.47,425.09c-.64-.45-1.44-.12-1.73.55-.41.68-.09,1.56.54,1.88.64.45,1.44.12,1.73-.55.41-.68.09-1.56-.54-1.88Z"/>
      <path class="cls-1" d="M2285.32,523.01c-2.24.21-4.81,2-4.69,3.28.17,1.79,5.14.16,5.56-1.69.15-.92-.28-1.65-.87-1.59Z"/>
      <path class="cls-1" d="M2262.15,313.07c-1.11-.41-2.5-.02-3.14.81-1.59,2.08.42,5.63,2.73,4.9,2.67-.77,2.99-4.92.41-5.71Z"/>
      <path class="cls-1" d="M2282.05,534.92c-.94.09-1.71.81-1.65,1.45.07.77.95,1.2,1.89,1.11s1.72-.68,1.65-1.45c-.06-.64-.95-1.2-1.89-1.11Z"/>
      <path class="cls-1" d="M2273.26,456.23c-.44-.86-1.87-.85-3.82-.15-5.39,2.19-5.02,14.78.52,14.26,3.78-.36,5.82-8.93,3.3-14.1Z"/>
      <path class="cls-1" d="M2265.39,441.13c-.59.06-1.12.75-1.05,1.52.06.64.68.84,1.23.4.67-.45,1.08-1.13,1.05-1.52-.02-.26-.52-.47-1.23-.4Z"/>
      <path class="cls-1" d="M2233.57,414.51c-.94.09-1.36.77-.94,1.38.43.73,1.3,1.17,2.01,1.1.59-.06,1.01-.61.94-1.38-.06-.64-.95-1.2-2.01-1.1Z"/>
      <path class="cls-1" d="M2235.99,541.49c-.92-.94-3.43,5.22-3.18,7.91.1,1.02,1,1.71,2.06,1.61,1.3-.12,1.58-.92.82-2.66-.61-1.36-.48-2.53.23-2.6,1.42-.13,1.49-3.11.07-4.26Z"/>
      <path class="cls-1" d="M2232.76,553.78c-.83.08-1.2,2.43-1.05,5.26.15,2.82-.57,7.79-1.58,10.98-.89,3.18-1.44,6.19-.93,6.53,1.7,1.64,2.53.28,2.93-4.27.22-2.73.73-6.13,1.3-7.6,1.31-3.73.86-11.04-.68-10.89Z"/>
      <path class="cls-1" d="M2228.11,556.28c-.9.6-1.29,1.41-.88,2.02,1.11,1.7,2.95,1.01,2.76-1.04-.11-1.15-.85-1.47-1.88-.98Z"/>
      <path class="cls-1" d="M2228,561.32c-.63-.33-1.17.24-1.06,1.39.11,1.15.75,1.6,1.3,1.17.67-.45,1.08-1.13,1.06-1.39s-.56-.85-1.3-1.17Z"/>
      <path class="cls-1" d="M2229.05,578.62c-1.65.16-1.65,1.45.02,7.73.15.37.68-.32,1.18-1.4,1.49-3.11.81-6.52-1.2-6.33Z"/>
      <path class="cls-1" d="M2226.41,626.04c-.9.6-1.58,2.21-1.44,3.62q.24,2.55,1.78-.04c1.94-3.41,1.82-4.68-.34-3.58Z"/>
      <path class="cls-1" d="M2226.01,634.33c-.24.02-1.38,1.81-2.59,4.11-1.52,2.85-1.71,4.54-.86,6.01.98,1.58,1.5.76,2.59-4.11.76-3.29,1.09-6.03.86-6.01Z"/>
      <path class="cls-1" d="M2219.15,605.98c-.55.44-1.01,1.9-.9,3.05.18,1.92.42,1.89,1.2.14,1.29-2.7,1.13-4.36-.3-3.19Z"/>
      <path class="cls-1" d="M2217.15,615.07c-.87,2.14-1.28,4.12-.89,4.47,1.04.93,1.53-.15,1.96-4.44l.46-3.91-1.54,3.88Z"/>
      <path class="cls-1" d="M2220.14,646.49c-2.36.22-2.83,4.01-1.33,8.5l1.31,3.74,1-4.48c1.34-5.93,1.03-7.96-.98-7.77Z"/>
      <path class="cls-1" d="M2171.2,243.22c-1.88-.98-3.83-1.44-4.49-.86-1.88,1.47-.89,4.47,1.86,5.75,2.12.96,3.05.74,4.2-.91,1.49-1.82,1.21-2.31-1.57-3.98Z"/>
      <path class="cls-1" d="M2163.15,226.2c-1.3-1.17-6.12-.45-6.82.91-.67,1.74,4.31,3.97,6.35,2.88,1.7-.93,1.91-2.5.47-3.78Z"/>
      <path class="cls-1" d="M2225.86,889.53c-.59.06-1.12.75-1.06,1.39.07.77.71,1.22,1.3,1.17.71-.07,1.13-.62,1.06-1.39-.06-.64-.59-1.23-1.3-1.17Z"/>
      <path class="cls-1" d="M2187.82,790.04c-.59.06-1.12.75-1.05,1.52.06.64.68.84,1.23.4.67-.45,1.08-1.13,1.05-1.52-.02-.26-.52-.47-1.23-.4Z"/>
      <path class="cls-1" d="M2111.34,218.63c-.94.09-1.36.77-.94,1.38.54.72,1.4.9,1.95.46,1.54-1.31,1.12-2.04-1.01-1.84Z"/>
      <path class="cls-1" d="M2160.96,808.06c-.59.06-1.12.75-1.06,1.39.07.77.71,1.22,1.3,1.17.71-.07,1.13-.62,1.06-1.39-.06-.64-.59-1.23-1.3-1.17Z"/>
      <path class="cls-1" d="M2151.07,841.87c-.55.44-1.06,1.39-.99,2.16.06.64.7,1.09,1.29,1.04.71-.07,1.1-1.01.99-2.16-.1-1.02-.62-1.49-1.29-1.04Z"/>
      <path class="cls-1" d="M2080.8,114.04c-.64-.45-1.44-.12-1.73.55-.41.68-.09,1.56.54,1.88.64.45,1.44.12,1.73-.55.41-.68.09-1.56-.54-1.88Z"/>
      <path class="cls-1" d="M2080.47,150.67c-.59.06-.77.72-.35,1.32.43.73,1.07,1.19,1.42,1.15.24-.02.42-.56.35-1.32-.06-.64-.71-1.22-1.42-1.15Z"/>
      <path class="cls-1" d="M2069.93,49.86c-.59.06-1.21,1.02-1.59,2.08-.26,1.06.06,1.93.54,1.88.59-.06,1.21-1.02,1.59-2.08.26-1.06-.06-1.93-.54-1.88Z"/>
      <path class="cls-1" d="M2141.66,831.81c-.59.06-.77.72-.35,1.32.43.73,1.07,1.19,1.42,1.15.24-.02.42-.56.35-1.32-.06-.64-.71-1.22-1.42-1.15Z"/>
      <path class="cls-1" d="M2138.79,906.83c-1.18.11-1.69,1.06-1.32,2.44.73,2.64,2.83,2.18,3.04-.55.11-1.3-.55-2.01-1.73-1.9Z"/>
      <path class="cls-1" d="M2130.04,851.09c-1.28-.91-2-.97-2.49.11-.79,1.75.72,3.8,2.84,3.6,2.12-.2,1.95-1.99-.35-3.7Z"/>
      <path class="cls-1" d="M2115.15,827.24c-.63-.33-1.19-.02-1.13.62.07.77.72,1.35,1.31,1.29.71-.07,1.16-.37,1.13-.62-.04-.38-.57-.98-1.31-1.29Z"/>
      <path class="cls-1" d="M2112.41,866.04c-3.19-.99-5.62,1.05-4.85,4.07.44,2.15,1.46,2.83,3.58,2.62s3-1.06,3.02-3.25c.08-1.68-.66-3.16-1.76-3.44Z"/>
      <path class="cls-1" d="M2113.39,896.36c-.59.06-1.12.75-1.05,1.52.06.64.68.84,1.23.4.67-.45,1.08-1.13,1.05-1.52-.02-.26-.52-.47-1.23-.4Z"/>
      <path class="cls-1" d="M2036.53,138.1c-.59.06-1.12.75-1.06,1.39.07.77.71,1.22,1.3,1.17.71-.07,1.13-.62,1.06-1.39-.06-.64-.59-1.23-1.3-1.17Z"/>
      <path class="cls-1" d="M2036.52,174.32c-1.36-1.8-4.94-.56-4.73,1.61.18,1.92,3.73,2.87,4.89,1.34.53-.69.41-1.97-.16-2.95Z"/>
      <path class="cls-1" d="M2088.81,888.39c-.59.06-1.12.75-1.05,1.52.06.64.68.84,1.23.4.67-.45,1.08-1.13,1.05-1.52-.02-.26-.52-.47-1.23-.4Z"/>
      <path class="cls-1" d="M2097.38,978.44c-.63-.33-1.17.24-1.06,1.39s.75,1.6,1.3,1.17c.67-.45,1.08-1.13,1.06-1.39s-.56-.85-1.3-1.17Z"/>
      <path class="cls-1" d="M2080.77,836.31c-.59.06-2.16,1.11-3.36,2.25-1.08,1.13-1.47,2.07-.76,2.01.59-.06,2.16-1.11,3.36-2.25,1.08-1.13,1.47-2.07.76-2.01Z"/>
      <path class="cls-1" d="M2075.78,826.47c-1.23.89-2.2,1.88-2.17,2.27.02.26,1.06-.1,2.29-.99,1.23-.89,2.2-1.88,2.17-2.27-.02-.26-1.06.1-2.29.99Z"/>
      <path class="cls-1" d="M2071.08,834.65c-.83.08-3.68,3.83-3.59,4.85.04.38,1.07.03,2.3-.86,2-1.48,2.94-4.15,1.29-3.99Z"/>
      <path class="cls-1" d="M2001.31,149.69c-2.34-.81-4.09.78-3.83,3.59.28,2.94,2.74,5.02,4.66,3.94,2.04-1.1,1.49-6.84-.83-7.52Z"/>
      <path class="cls-1" d="M2055.14,841.07c-4.6,3.01-8.17,5.55-7.91,5.78.66.71,16.5-9.3,16.4-10.32-.05-.51-3.9,1.53-8.5,4.55Z"/>
      <path class="cls-1" d="M2068.06,939.34c-.94.09-1.71.81-1.65,1.45.07.77.95,1.2,1.89,1.11s1.72-.68,1.65-1.45c-.06-.64-.95-1.2-1.89-1.11Z"/>
      <path class="cls-1" d="M2055.29,845.18c-.47.04-1.71.81-2.59,1.54-1.44,1.17-1.41,1.42.36,1.25,1.06-.1,2.31-.74,2.59-1.54.29-.67.23-1.31-.36-1.25Z"/>
      <path class="cls-1" d="M2044.69,875.18c-.63-.33-1.17.24-1.06,1.39.11,1.15.75,1.6,1.3,1.17.67-.45,1.08-1.13,1.06-1.39s-.56-.85-1.3-1.17Z"/>
      <path class="cls-1" d="M1971.86,139.22c-1.8-1.38-3.13-.35-2.87,2.34.18,1.92,3.29,2.01,4.06.13.29-.67-.17-1.79-1.19-2.46Z"/>
      <path class="cls-1" d="M1963.3,56.77c-.76-.44-1.92-.2-2.56.63-.64.83-.56,1.6.44,2.15.76.44,1.92.2,2.56-.63s.56-1.6-.44-2.15Z"/>
      <path class="cls-1" d="M1944.53,67.19c-1.27.38-2.23,1.63-2.33,3.06-.2,1.69.32,2.16,1.82,1.63,1.27-.38,2.23-1.63,2.33-3.06.2-1.69-.32-2.16-1.82-1.63Z"/>
      <path class="cls-1" d="M1943.19,83.17c-.55.44-1.08,1.13-1.05,1.52.02.26.64.45,1.23.4.71-.07,1.12-.75,1.05-1.52-.06-.64-.56-.85-1.23-.4Z"/>
      <path class="cls-1" d="M1947.08,137.84c-.68.32-1.08,1.13-1.02,1.77s.61,1.36,1.34,1.55,1.25-.63,1.14-1.78c-.11-1.15-.77-1.86-1.46-1.54Z"/>
      <path class="cls-1" d="M1923.87,141.72c-1.5-.76-2.69,1.8-1.58,3.37.96,1.33,3,.23,2.83-1.56-.06-.64-.61-1.36-1.24-1.81Z"/>
      <path class="cls-1" d="M1911.13,121.67c-.59.06-1.07,1.26-.94,2.67s.83,2.5,1.42,2.44c.71-.07,1.07-1.26.94-2.67-.13-1.41-.71-2.51-1.42-2.44Z"/>
      <path class="cls-1" d="M1901.6,135.46c-.59.06-.77.72-.35,1.32.43.73,1.07,1.19,1.42,1.15.24-.02.42-.56.35-1.32-.06-.64-.71-1.22-1.42-1.15Z"/>
      <path class="cls-1" d="M1897.54,116.51c-.59.06-1.12.75-1.06,1.39.07.77.71,1.22,1.3,1.17.71-.07,1.13-.62,1.06-1.39-.06-.64-.59-1.23-1.3-1.17Z"/>
      <path class="cls-1" d="M1847.93,123.29c-3.17-2.02-4.73-2.13-4.58-.6.12,1.28,6.33,3.91,7.07,2.94.21-.28-.84-1.34-2.49-2.34Z"/>
      <path class="cls-1" d="M1842.21,920.99c-.71.07-2.41-.29-3.63-.56-1.71-.48-1.82-.34-.77.72.91.82,2.49,1.18,3.64.69,1.26-.51,1.59-.8.75-.84Z"/>
      <path class="cls-1" d="M1730.35,129.06c-3.31-.97-5.05.74-2.07,2,1.75.86,2.94.88,3.33-.06.28-.8-.28-1.65-1.26-1.94Z"/>
      <path class="cls-1" d="M1786.31,900.4c-.59.06-1.12.75-1.06,1.39.07.77.71,1.22,1.3,1.17.71-.07,1.13-.62,1.06-1.39-.06-.64-.59-1.23-1.3-1.17Z"/>
      <path class="cls-1" d="M1781.35,899.58c-1.3.12-1.95.83-1.53,1.43.43.73,1.66,1.13,2.6,1.04.94-.09,1.6-.67,1.53-1.43-.06-.64-1.18-1.18-2.6-1.04Z"/>
      <path class="cls-1" d="M1692.75,183.16c-1.14.5-1.66,1.32-1.27,1.67s1.3-.12,2.04-1.1c.94-1.38.81-1.49-.77-.57Z"/>
      <path class="cls-1" d="M1682.32,189.95c-1.3.12-1.62.54-.64.83.86.3,1.91.08,2.23-.34.44-.43-.31-.74-1.59-.49Z"/>
      <path class="cls-1" d="M1674,157.49c-2.95.28-4.11.65-2.55.76,1.44.12,3.8-.1,5.31-.5,1.39-.39.19-.53-2.76-.25Z"/>
      <path class="cls-1" d="M1674.62,201.64c-1.62.54-3.3,1.6-3.83,2.3-1.72,1.97.83,1.21,3.93-1.28l2.77-2.2-2.87,1.17Z"/>
      <path class="cls-1" d="M1654.33,158.58c-1.42-1.15-10.01-.08-9.89,1.2.06.64,2.14,1.21,4.65,1.36,4.41.1,6.93-1.05,5.23-2.56Z"/>
      <path class="cls-1" d="M1652.79,210.03c-1.6.67-3.61,2.15-4.45,3.26-1.05,1.52-1.14,1.78-.02,1.03.78-.59,1.98-.45,2.54.4.69.97,1.89,1.11,3.13.35,1.47-.78,1.66-1.32.56-1.6-1.23-.4-1.28-.91-.24-2.55,1.13-1.91,1-2.03-1.51-.89Z"/>
      <path class="cls-1" d="M1614.44,146.01c-1.3.12-2.08.71-1.53,1.43.41.6,1.5.76,2.4.16,2.39-1.13,2.08-1.87-.87-1.59Z"/>
      <path class="cls-1" d="M1584.67,102.18c-3.35-2.65-9.64-3.72-8.7-1.36.93,2.23,6.75,4.64,9.18,3.9,1.62-.54,1.59-.8-.48-2.53Z"/>
      <path class="cls-1" d="M1582.9,142.44c-3.33-1.23-9.15.23-8.95,2.27.18,1.92,4.98,3.52,8.25,2.82,4.08-.9,4.42-3.64.71-5.09Z"/>
      <path class="cls-1" d="M1506.77,404.99c-.47.04-.9.6-.83,1.24s-.73,1.1-1.8,1.07c-1.06.1-2.18.85-2.33,1.77-.27.93.24,1.27,1.37.64,1.03-.48,1.88-.31,1.95.46.07.77.81.95,1.59.49,1.59-.8,1.59-5.82.06-5.68Z"/>
      <path class="cls-1" d="M1503.28,403.39c-.63-.33-1.19-.02-1.13.62.07.77.72,1.35,1.31,1.29.71-.07,1.16-.37,1.13-.62-.04-.38-.57-.98-1.31-1.29Z"/>
      <path class="cls-1" d="M1503.81,420.23c-.9-1.98-1.31-1.29-1.93,3.53-.98,7.18-.95,7.57.23,7.45.83-.08,3.3-6.63,2.94-7.88-.05-.51-.65-1.87-1.25-3.1Z"/>
      <path class="cls-1" d="M1497.95,397.45c-.55.44-1.06,1.39-.99,2.16.06.64.7,1.09,1.29,1.04.71-.07,1.1-1.01.99-2.16-.1-1.02-.62-1.49-1.29-1.04Z"/>
      <path class="cls-1" d="M1495.09,429.95c-.74-.32-.81.21-.36,1.19,1.04,2.22,1.91,2.53,1.74.74-.07-.77-.63-1.62-1.37-1.93Z"/>
      <path class="cls-1" d="M1494.35,434.66c-.71-1.22-1.16-.92-1.6.67-.66,3.03-.52,4.56.78,4.44,1.53-.15,2.06-3.42.82-5.1Z"/>
      <path class="cls-1" d="M1493.82,441.67c-2.14-1.21-3.46,1.23-3.34,6.25.11,2.44-.46,5.2-1.08,6.16-.74.97-1.27,2.96-1.13,4.36.13,1.41-.25,3.63-.94,5.12-.7,1.36-.79,2.91-.27,3.38,1.17,1.05,2.14-.07,2.25-2.66.02-1.03.66-3.03,1.5-4.27.82-1.37,1.92-4.82,2.35-7.83.43-3.01,1.07-6.29,1.43-7.48.35-1.32,0-2.58-.76-3.02Z"/>
      <path class="cls-1" d="M1511.15,699.08c-.63-.33-1.19-.02-1.13.62.07.77.72,1.35,1.31,1.29.71-.07,1.16-.37,1.13-.62-.04-.38-.57-.98-1.31-1.29Z"/>
      <path class="cls-1" d="M1501.83,663.62c-.75-1.6-1.58-2.81-1.93-2.78-.83.08,1.19,5.04,2.33,5.71q1.25.65-.4-2.93Z"/>
      <path class="cls-1" d="M1498.7,655.8c-1.1-1.57-1.34-1.55-1.16.37.11,1.15.83,2.5,1.46,2.83,1.63.88,1.47-.78-.3-3.19Z"/>
      <path class="cls-1" d="M1485.05,627.45c-.91-2.1-1.66-2.42-2.51-1.31-.85,1.11-.66,3.03.81,7.27,1.01,3.13,1.78,6.15,1.47,6.69-.19.53.45,2.28,1.57,3.98,1.7,2.8,1.78,2.41.92-5.37-.56-4.59-1.53-9.78-2.26-11.26Z"/>
      <path class="cls-1" d="M1465.12,503.04c-.59.06-.74.97-.29,1.96.57.98,1.13,1.83,1.36,1.8s.39-.94.29-1.96c-.1-1.02-.65-1.87-1.36-1.8Z"/>
      <path class="cls-1" d="M1477.83,632.91c-.63-.33-1.79-.09-2.57.5-1.1,1.01-1.06,1.39.08,2.05.76.44,1.92.2,2.56-.63.53-.69.56-1.6-.06-1.93Z"/>
      <path class="cls-1" d="M1465.75,618.59c-2.14-1.21-10.7,1.4-12.04,3.59-.93,1.51-.42,1.84,2.77,1.54,4.94-.6,11.29-4.04,9.28-5.14Z"/>
      <path class="cls-1" d="M1469.81,664.99c-.59.06-1.12.75-1.05,1.52.06.64.68.84,1.23.4.67-.45,1.08-1.13,1.05-1.52-.02-.26-.52-.47-1.23-.4Z"/>
      <path class="cls-1" d="M1399.05,692.34c-3.74,2.03-6.02,4.31-5.87,5.84.15,1.53,6.07-2.51,7.82-5.38,1.25-1.92,1-2.03-1.95-.46Z"/>
      <path class="cls-1" d="M1339.24,606.77c-1.65.16-2.22.47-1.36.77.73.19,2.15.05,2.95-.28.67-.45.06-.65-1.59-.49Z"/>
    </g>
    <path class="cls-1" d="M1173.75,352.42c-2.24.21-2.44.62-1.27,1.67,1.17,1.05,1.88.98,2.83-.27"/>
    <g>
      <path class="cls-1" d="M526.46,359.55c-1.27.3-1.74,1.15-1.26,2.23s1.53,1.27,2.73.49"/>
      <path class="cls-1" d="M540.88,367.88c.07,1.13.5,2.11,1,2.28,1.65.57,5.19-3.17,4.48-4.8"/>
      <path class="cls-1" d="M678.06,312.35c-.23.75.33,1.41,1.06,1.48.78.18,1.51-.4,1.62-1.1"/>
      <path class="cls-1" d="M684.11,340.62c1.25.62,2.5,1.24,2.55,1.34s.42-.96.7-2.25c.35-2.09-.03-2.31-2.6-1.45-2.8.96-2.82,1.23-.65,2.35Z"/>
      <path class="cls-1" d="M674.2,370.18c-1.56-2.29-3.87-1.8-4.85,1.08-.65,1.71-.27,2.58,1.05,3.04"/>
      <path class="cls-1" d="M703.59,364.71c1.65-.72,2.04-3.99.5-4.62-1.6-.46-3.98.83-4.28,2.39"/>
      <path class="cls-1" d="M714.91,382.28c-1.05,3.05,1.95,5.1,5.12,3.71,3.41-1.49,3.68-4.71.69-6.12"/>
      <path class="cls-1" d="M726.23,482.24c-.9-.13-.8,1.38.25,3.77s2.08,3.49,2.6,2.75"/>
      <path class="cls-1" d="M841.86,591.49c-3.86.13-8.45,2.14-7.05,3.08.59.39,3.18-.1,5.48-1.23"/>
      <path class="cls-1" d="M551.22,597.63c-.85-1.96-4.96-3.01-5.28-1.19-.39,1.98,2.42,4.25,4.3,3.43"/>
      <path class="cls-1" d="M604.12,657.83c.9,2.06,1.35,2.13,1.98.69.63-1.44.35-2.09-1.14-2.61"/>
      <path class="cls-1" d="M210.37,439.17c-.28-.65-1.53-.62-2.83-.06-1.29.56-2.16,1.46-1.88,2.11"/>
      <path class="cls-1" d="M324.87,677.88c-1.29-4.22-3.15-6.26-4.06-4.18-.65,1.71,3.05,9.54,4.22,9.02"/>
      <path class="cls-1" d="M291.19,756.24c-1.02-1.37-1.25-1.26-2.26,1.24-1.47,4.01-.53,10.32,1.42,8.69"/>
      <path class="cls-1" d="M332.79,745.7c-2.13-3.6-4.84-3.06-5.06.92-.13,3.55,3.07,8.62,4.95,7.8"/>
      <path class="cls-1" d="M907.54,749.85c3.09,2.92,5.97,4.38,7.38,3.76s-4.28-4.99-7.55-5.76"/>
    </g>
    <path class="cls-1" d="M1241.04,592.55c.11-1.3-.55-2.01-1.73-1.9s-1.69,1.06-1.32,2.44"/>
    <path class="cls-1" d="M1228.64,603.65c-1.1-.28-2.16-.18-2.48.24-1.06,1.39,1.4,5.92,3.17,5.76"/>
    <path class="cls-1" d="M1238.63,751.3c-.64-.45-1.44-.12-1.73.55-.41.68-.09,1.56.54,1.88"/>
    <path class="cls-1" d="M1209.88,748.24c-.98,1-1.95,1.99-2.07,2s.78.7,1.92,1.36c1.88.98,2.21.69,2.19-2.01-.04-2.96-.29-3.07-2.03-1.35Z"/>
    <path class="cls-1" d="M1184.89,729.61c2.67-.77,2.92-3.11.48-4.94-1.42-1.15-2.36-1.06-3.21.05"/>
    <path class="cls-1" d="M1180.92,759.24c.17,1.79,3.16,3.18,4.23,1.92.94-1.38.45-4.04-.93-4.81"/>
    <path class="cls-1" d="M1160.7,764.51c-2.57-1.95-5.45.26-5.12,3.71.35,3.7,3.33,4.97,5.6,2.56"/>
    <path class="cls-1" d="M1062.19,744.11c.4-.81-1.07-1.19-3.66-.94-2.6.25-3.96.89-3.42,1.61"/>
    <path class="cls-1" d="M922.34,819.91c1.08-3.71.6-8.69-.73-7.66-.55.44-.9,3.05-.54,5.59"/>
    <path class="cls-1" d="M1007.12,541.84c2.12-.2,4.4-3.77,2.77-4.65-1.76-.99-4.79.97-4.6,3.01"/>
    <path class="cls-1" d="M933.43,573.34c-2.24.21-2.44.62-1.27,1.67,1.17,1.05,1.88.98,2.83-.27"/>
    <path class="cls-1" d="M1263.95,267.39c.71-.07,1.07-1.26.94-2.67-.13-1.41-.71-2.51-1.42-2.44"/>
    <path class="cls-1" d="M1001.44,301.75c4.41.1,6.93-1.05,5.23-2.56-1.42-1.15-10.01-.08-9.89,1.2"/>
    <path class="cls-1" d="M937.49,245.33c1.62-.54,1.59-.8-.48-2.53-3.35-2.65-9.64-3.72-8.7-1.36"/>
    <path class="cls-1" d="M934.53,288.14c4.08-.9,4.42-3.64.71-5.09-3.33-1.23-9.15.23-8.95,2.27"/>
    <path class="cls-1" d="M751.39,832.95c-3.74,2.03-6.02,4.31-5.87,5.84.15,1.53,6.07-2.51,7.82-5.38"/>
    <path class="cls-1" d="M505.68,714.1c1.29.53,2.19.44,2.38-.2s-.64-1.24-2.15-1.55"/>
    <path class="cls-1" d="M497.6,703.76c.57-.46.75-1.04.4-1.35-1.14-1.04-6.4-1.42-6.69-.46"/>
    <path class="cls-1" d="M344.63,655.6c.63-.16.5-.69-.11-1.09-.59-.46-1.56-.61-2.06-.4"/>
    <path class="cls-1" d="M355.22,642.01c-.76-.86-1.52-1.72-1.5-1.78s-.91.15-1.89.49c-1.49.61-1.28.88,1.48,1.85,3.03,1.05,3.2.96,1.91-.55Z"/>
    <path class="cls-1" d="M380.7,635.96c.09,1.64,2.41,2.61,4.91,2.03,1.54-.31,1.7-.82.79-1.66"/>
    <path class="cls-1" d="M351.55,623.24c-1.87-.56-4.06.47-3.05,1.47,1.16.98,4,1.69,5.14,1.26"/>
    <path class="cls-1" d="M351.44,611.01c2.65-.61,1.15-2.88-2.45-3.96-3.86-1.16-5.93-.09-4.06,1.94"/>
    <path class="cls-1" d="M397.83,568.02c.72.5,1.49-.12,1.91-1.53.42-1.42.12-2.35-.75-2.33"/>
    <path class="cls-1" d="M357,469.2c3.5,1.89,8.7,3.44,7.99,2.39-.3-.44-2.87-1.56-5.56-2.29"/>
    <path class="cls-1" d="M618.15,612.84c-.35,1.16,2.69,3.61,4.01,3.09,1.47-.54.26-2.8-1.88-3.44"/>
    <path class="cls-1" d="M605.24,563.81c.37-1.22,0-1.47-1.37-1.25-1.37.22-1.49.61-.46,1.54"/>
    <path class="cls-1" d="M830.88,843.11c-.12.39,1.01,1,2.47,1.44,1.47.44,2.74.54,2.86.15"/>
    <path class="cls-1" d="M864.14,696.54c-1.25,2.22-.74,3.92,1.25,3.6,1.54-.31,2.68-5.09,1.35-5.49"/>
    <path class="cls-1" d="M938.23,684.22c.13,1.02.4,1.1,2.7.67,3.57-.76,6.3-3.58,3.65-3.96"/>
    <path class="cls-1" d="M895.4,667.26c-.14,2.41,2.56,3.57,5,2.2,2.12-1.26,2.15-4.76.02-5.39"/>
    <path class="cls-1" d="M388.18,377.13c-1.1-2.64-2.82-4.63-4.42-5.11s.98,4.01,3.45,5.94"/>
    <path class="cls-1" d="M1569.71,535.84c.19-.53-.43-.77-1.61-.66-1.18.11-1.74.52-1.45,1.05"/>
    <path class="cls-1" d="M1556.75,540.98c-1.08-.05-2.14.05-2.48.24-1.13.62,1.05,2.29,2.82,2.12"/>
    <path class="cls-1" d="M1558.25,599.37c-.61-.15-1.43.03-1.76.32-.45.3-.18.63.43.72"/>
    <path class="cls-1" d="M1529.83,599.79c-1.03.45-2.06.91-2.18.92s.74.23,1.83.44c1.81.28,2.16.15,2.29-.93.13-1.18-.11-1.21-1.95-.42Z"/>
    <path class="cls-1" d="M1506.04,593.77c2.7-.46,3.08-1.41.76-2-1.35-.38-2.29-.29-3.2.2"/>
    <path class="cls-1" d="M1500.4,605.83c.07.7,2.96,1.09,4.1.52,1.01-.6.68-1.64-.65-1.87"/>
    <path class="cls-1" d="M1479.99,609.09c-2.44-.63-5.44.42-5.31,1.77.14,1.46,3.03,1.79,5.43.7"/>
    <path class="cls-1" d="M1383.18,606.57c.44-.35-.99-.41-3.59-.17-2.6.25-3.99.58-3.49.84"/>
    <path class="cls-1" d="M1239.75,644.83c1.28-1.54,1.1-3.51-.29-3.02-.58.21-1.07,1.27-.86,2.26"/>
    <path class="cls-1" d="M1339.95,528.95c2.12-.2,4.6-1.76,3.02-2.01-1.7-.3-4.82.66-4.74,1.47"/>
    <path class="cls-1" d="M1264.86,545.74c-2.24.21-2.46.39-1.36.74s1.81.28,2.83-.27"/>
    <path class="cls-1" d="M1611.07,404.69c.71-.07,1.14-.56,1.08-1.12s-.57-.96-1.28-.89"/>
    <path class="cls-1" d="M1348.02,433.41c4.39-.21,6.95-.81,5.35-1.32-1.35-.38-9.95.54-9.9,1.04"/>
    <path class="cls-1" d="M1287.63,414.53c1.64-.31,1.63-.41-.33-.98-3.18-.87-9.38-.94-8.58-.05"/>
    <path class="cls-1" d="M1282.25,431.8c4.11-.59,4.6-1.71.99-2.07-3.24-.3-9.11.61-9.03,1.42"/>
    <path class="cls-1" d="M1068.99,659.8c-3.83,1.02-6.23,2.06-6.18,2.67s6.18-1.35,8.09-2.6"/>
  </g>
  <path d="M1897.58,361.01c18.75,6.55,32.73,20.83,31.54,32.14-1.49,14.28-8.93,16.67-22.32,7.14-23.51-16.37-52.67-6.84-85.11,27.68-22.62,23.81-38.69,50.89-49.1,82.73-9.82,30.35-11.01,76.48-2.38,102.97,10.12,30.65,32.14,46.42,64.87,46.42,30.65,0,65.47-17.86,78.86-40.77,6.84-11.9,7.14-13.69,3.27-17.86-2.68-2.38-22.32-8.03-44.04-12.2-34.52-6.84-39.88-8.63-42.56-14.88-2.68-5.65-2.08-8.03,4.46-14.58,7.14-7.14,10.42-7.74,46.13-10.12,20.83-1.19,54.46-2.38,74.1-2.68,41.66,0,49.7,3.27,49.7,20.24,0,12.2-8.03,20.83-21.43,22.91-24.7,4.17-24.1,3.57-24.1,16.96,0,17.26-10.12,36.6-29.76,56.24-27.38,27.38-63.68,42.26-104.16,41.96-52.38,0-89.28-29.76-105.94-85.41-6.84-22.62-6.84-71.72,0-102.67,9.23-43.75,41.96-98.8,74.1-125.88,38.69-32.44,70.23-41.66,103.86-30.35Z"/>
  <path d="M527.66,387.92c-7.41,3.4-14.55,17.36-19.04,37.12-5.83,25.29-11.29,74.53-11.59,103.98-.53,48.63-.26,53.41,3,55.54,2.91,1.82,2.92,1.98.45,2.12s-2.69,2.14-1.95,15.15c1.26,22.08.39,21.3-22.92-19.36-16.5-28.48-24.74-45.37-29.52-59.65-4.75-13.78-9.65-18.46-19.53-17.9-3.62.21-9.31,2.02-12.65,4.19-10.53,6.72-10.77,8.22-7.85,50.7,2.57,36.39,2.54,67.8-.1,70.76-.61.86-2.22-1.2-3.58-4.76-2.88-7.11-12.95-27.03-24.22-47.88-4.26-8.02-9.09-17.33-10.44-20.73-1.52-3.55-3.38-7.08-4.26-8.02s-5.66-12.24-10.69-25.18c-8.32-21.18-12.08-32.04-21.91-62.39-3.59-10.71-6.44-14.35-13.9-17.72-4.07-1.75-5.07-1.86-6.11.18-1.05,1.88-1.87,1.93-4.78.27-3.24-1.8-3.73-1.61-4.38,1.41-.38,2.01-2.27,3.6-4.89,4.08-2.29.46-4.52,1.91-5.1,3.27-5.99,13.9-6.12,14.4-3.93,20.89,3.04,9.91,6.28,20.3,8.73,28.43,3.32,11.88,7.39,51.32,10.53,106.35,2.09,33.77,3.77,51.69,4.8,52.29s2.98,0,4.23-1.23c2.05-1.77,2.06-4.42.7-13.76-2.31-14.42-8.07-115.42-6.73-117.97,1.64-3.07,6.98-2.22,8.52,1.5.61,1.95,8.75,17.19,17.81,34.03,17.56,32.56,28.36,53.76,32.44,64.44,1.36,3.56,8.65,21.33,16.31,39.57,9.19,21.96,14.33,36.71,15.39,43.76,1.3,8.36,2.27,10.78,4.59,10.98,2.33.36,2.76-.82,2.5-5.43-.19-3.3.32-5.97,1.31-6.03,2.31-.13,4.22,7.36,3.85,15.32-.55,7.8,1.54,12.48,5.16,12.27,1.65-.09,2.09-3.92,1.95-15.15l-.36-15.02,7.18-7.35c10.47-10.68,10.21-9.34,11.74-52.08.31-9.11.64-26.49.45-38.54-.03-12.07.38-22.34,1.02-22.7.63-.53,5.49,6.46,10.81,15.58,5.3,8.95,10.23,17.1,11.11,18.05s10.59,17.58,21.77,36.78c11.18,19.2,21.9,36.28,23.81,37.82,4.83,3.53,14.38,2.82,20.9-1.69,10.01-7.02,13.27-19.44,8.52-33.22-2.36-6.64-7.03-47.87-5.54-47.95.66-.04,3.53.96,6.25,2.29,3.56,1.62,7.21,1.74,12.43.61,8.99-1.83,8.98-2,3.1,28.26-2.56,13.04-3.9,24.36-3.28,26.64,1.42,4.55,9.73,11.18,15.42,12.35,5.85,1.15,13.32-4.07,14.94-10.44,1.86-8.04,4.73-24.24,8.29-48.91,1.63-11.99,3.86-22.21,4.81-22.92,4.13-2.88,33.87-11.85,35.1-10.6.87.78,6.79,11.85,13.15,24.71,6.35,12.86,13.98,27.8,16.94,33.25s5.41,10.77,5.46,11.76,2.02,3.52,4.45,5.53c4.89,4.52,12.67,4.73,19.7.53,2.4-1.46,4.8-2.75,4.97-2.76.33-.02,1.63,2.55,2.8,5.63,4.64,11.8,16.39,14.93,25.18,6.66,9.25-8.79,9.86-12.63,5.05-30.37-5.49-20.85-12.39-49.22-15.12-62.28-3.42-16.5-10.91-63.85-10.3-64.71.48-.36,6.21,7.42,12.88,17.12,6.84,9.86,16.38,23.53,21.41,30.52,22.79,31.43,54.43,79.05,61.62,92.03,6.64,12.02,23.02,12.41,31.62.84,5.38-7.08,4.7-16.14-2.91-39.51-12.63-38.79-25.67-102.35-28.1-136.26l-1.55-21.4,5.63.17c3.14-.01,13.28-1.91,22.56-4.43,9.45-2.36,17.96-4,19.13-3.74,1.69.57,2.72,10.09,4.55,39.25,1.37,21.08,3.55,44.93,5.01,53.11,6.31,35.35,8.1,43.51,12.75,61.26,2.73,10.26,5.83,21.16,6.83,24.08s1.99,5.84,2.19,6.49c.5,2.95,2.69,9.43,3.41,10.55.54.8,2.32.03,3.87-1.71,1.56-1.58,3.02-2.16,3.07-1.17s.67,3.1,1.43,4.71c1.14,2.58.97,2.59-1.61.75-2.41-1.68-3.07-1.64-3.92.88-1.11,3.7,5.29,8.79,10.73,8.48,17.14-.98,25.87-18.83,17.65-35.39-9.35-18.97-22.32-60.88-24.77-80.74-1.13-8.2-3.09-33.88-4.42-57.27-2.69-47.12-3.2-44.45,8.71-47.28,5.88-1.33,6.89-.89,10.94,3.34,7.39,7.84,11.72,8.42,33.28,3.89,10.46-2.08,21.1-4.01,23.73-4.16l4.77-.44.52,14.85c.79,19.63,9.03,85.94,13.36,106.85,3.88,18.79,13.49,50.97,19.02,64.05,2.09,4.84,4.43,10.99,5.07,13.6,3.89,13.17,13.67,16.58,25.46,8.8,12.9-8.67,12.94-13.63.8-44.02-15.41-38.3-18.36-49.54-25.27-95.26-3.72-24.58-6.47-75.84-4.14-78.45,1.4-1.57,13.28-4.89,39.53-11.18,7.66-1.92,14.99-3.83,16.27-4.56,1.29-.57,3.9-1.21,5.7-1.48s11.75-2.65,22.01-5.39c15.15-3.84,19.35-5.57,22.3-9.04,7.25-9.17,1.63-23.57-10.4-25.86-4.68-.89-19.87,2.29-34.15,7.07-12.65,4.19-54.01,15.31-67.09,17.88-18.3,3.69-20.14,3.46-20.41-1.32-.31-5.44-8.12-11.94-13.72-11.62-2.31.13-10.46,2.08-18.1,4.34-63.09,18.47-63.73,18.68-68.18,16.12-3.08-1.81-6.4-2.11-11.64-1.15-6.22,1.02-8.46,2.47-13.09,8.18-4.93,6.4-6.37,7.14-16.82,9.39-6.21,1.18-16.53,2.93-22.76,3.78l-11.16,1.46.52-5.32c.71-7.81-3.43-13.69-10.97-15.57-8.21-1.85-15.43,1.87-19.1,10.02-4.98,11.19-.39,74.41,8.99,122.97,4.89,24.85,5.22,27.8,4.07,27.87s-9.21-10.72-27.92-37.42c-14.76-21.14-37.43-59.19-43.68-73.22-7.4-16.77-9.92-20.26-15.99-22.4-9.96-3.57-22.64,2.94-28.76,14.53-2.54,4.77-2.73,7.26-.86,22.7,1.2,9.52,4.12,28.69,6.73,42.6,2.45,13.91,5.67,32.74,7.17,41.74,2.47,14.41,4.19,24.23,10.98,59.21,2.29,11.11-.33,11.59-6.55,1.03-4.41-7.68-6.48-12.19-14.34-31.09l-4-9.36,4.86-4.58c9.26-8.63,3.65-23.02-9.48-24.26-5.99-.65-6.68-1.27-9.4-8.23-4.24-10.5-19.77-65.49-24.01-84.76-1.33-5.88-3.76-16.65-5.34-24.16-3.53-15.5-6.26-19.98-14.39-23.31-11.17-4.49-15.37-2.93-26.4,9.6l-10.11,11.16,1.96,11.13c3.93,22.59,3.64,40.62-2.74,122.98-.44,6.8-1.41,12.97-1.88,13.5-.63.53-6.49,2.19-13.19,3.56-6.53,1.53-13.5,3.91-15.23,5.33-1.9,1.43-3.81,2.7-4.31,2.73-1.15.07-3.17-46.93-2.49-58.21.22-4.81.77-15.42,1.3-23.55,1.85-34.16,7.8-72.02,14.93-94.74,3.94-12.13,3.47-17.39-1.72-21.56-3.46-2.78-11.47-3.97-15.17-2.28ZM609.44,535.01c3.85,12.51,6.45,23.27,5.98,23.79-1.72,1.75-16.93,7.41-17.81,6.64-.35-.31-.19-12.06.5-25.98s1.13-26.51,1.06-27.83c-.39-6.76,3.81,3.09,10.26,23.38ZM791.62,552.56c.1,1.81-2.99,2.65-4.06,1.22-.54-.8.07-1.66,1.39-1.73,1.48-.08,2.66.18,2.67.51ZM757.21,557.99c.08,1.32-.52,2.51-1.51,2.57-.82.05-1.22-1.09-.8-2.43.58-1.36,1.18-2.55,1.51-2.57s.72,1.12.8,2.43ZM807.85,593.79c.71.79-.43,1.18-2.27.79-3.85-.77-4.41-1.9-1.11-2.09,1.32-.08,2.84.5,3.38,1.3ZM876.68,623.92c.08,1.32-1.01,2.54-2.5,2.62-2.31.13-2.33-.36-.8-2.43,1.08-1.38,2.17-2.6,2.5-2.62s.72,1.12.8,2.43ZM890.04,634.89c-.47.52-1.94.77-3.12.34-1.35-.42-.88-.94.93-1.04,1.8-.27,2.82.17,2.19.7ZM709.51,649.15c.05.82-.73,1.69-1.72,1.75-.82.05-1.2-.76-.75-1.61.44-1.02,1.22-1.72,1.72-1.75.33-.02.7.62.75,1.61Z"/>
  <path d="M1190.2,358.91c-4.62,3.07-9.31,13.59-8.05,18.31.64,2.44,4.14,11.67,7.78,20.55,10.33,24.7,16.31,42.55,24.28,72.18,3.82,14.82,10.92,40.7,15.52,57.63,4.76,16.76,8.57,31.42,8.62,32.24s-2.01-.55-4.48-3.22c-4.05-4.4-5.4-4.82-13.8-4.34-18.12,1.03-50.03,12.61-74.67,26.9-9.28,5.32-16.97,9.73-17.3,9.75-2.31.13-18.46-45.4-16.9-47.14,2.18-2.44,44.06-15.9,45.93-14.85,1.02.44,1.91,4.52,2.16,8.97.46,8.07,2.83,11.91,4.37,7.02.41-1.51.66-5.82.44-9.61-.36-6.26.39-7.63,5.9-12.57,11.16-10.06,8.65-25.12-4.58-28.17-5.37-1.35-9.45-.45-32.18,6.79-38.14,12.42-33.84,12.51-38.72-.6-3.34-9.23-10.3-32.8-10.45-35.44-.11-1.98,13.95-7.57,65.79-26.07,9.73-3.36,12.28-5,14.03-9.07,3.52-7.8,2.31-14.51-3.44-19.81-8.35-7.29-10.47-6.84-74.25,16.96q-12.79,4.7-15.29,1.53c-4.09-5.06-14.59-3.63-20.35,2.65-2.49,2.79-4.42,6.53-4.32,8.35.13,2.31-1.89,4.57-5.73,6.77-13.79,7.56-13.81,24.59-.29,32.58l6.83,3.91,1.45,25.37,1.45,25.37-4.83,2.26c-10.3,4.89-12.27,16.73-4.31,25.87,7.09,8.36,12.42,9.05,24.12,2.59,5.45-2.96,11.26-5.44,12.74-5.52,2.14-.12,4.54,4.2,10.04,19.59,3.93,11.02,7.94,23.35,8.68,27.61,1.38,6.86,1.13,8.2-3.32,14.24-5.53,7.42-5.71,12.89-.88,19.39,4.82,6.34,12.15,10.22,19.07,9.82,5.11-.29,8.46-2.47,21.16-14.43,8.33-7.58,20.01-17.18,25.91-20.98,13.22-8.85,37.4-19.49,55.29-24.64,19.52-5.58,20.15-6.11,24.65-19.92,1.28-3.71,1.64-3.07,4.49,6.36,2.83,9.1,7.6,23.04,12.44,35.49,1.17,3.07-.09,4.14-9.24,8.96-5.77,3.14-10.55,6.39-10.5,7.21s-.92,1.21-2.27.79-7.81,2.1-14.39,5.61c-10.26,5.54-12.16,7.14-13.52,12.18-2.05,7.56.83,14.5,7.3,17.93,7.15,3.56,11.9,2.79,25.05-4.24,6.42-3.34,19.91-10.23,29.88-15.26,16.06-8.19,21.15-11.79,16.21-11.5-.82.05-1.71-1.06-1.8-2.54-.1-1.81.86-2.36,3.21-1.67s3.31.14,3.21-1.67c-.08-1.48.67-2.68,1.66-2.74s1.4,1.41.86,3.42c-.97,3.36-.63,3.51,3.6,2.27,6.33-2.01,6.78-2.87,3.18-5.14-3.26-2.13-4.13-5.72-1.49-5.87.99-.06,1.68.4,1.72,1.22.17,2.97,7.68,4.19,12.5,1.77,2.74-1.15,12.08-5.65,20.94-9.62,31.24-14.51,68.74-35.33,83.8-46.6,19.17-14.65,29.94-31.46,29.11-46.13-1.1-19.28-16.99-34.24-64.67-61.61-25.46-14.58-61.43-33.69-63.41-33.58-2.31.13-31.12-15.25-51.84-27.79-22.59-13.42-22.41-13.27-42.29-28.5-12.78-9.52-14.31-10.26-21.39-9.86-4.28.24-9.02,1.34-10.45,2.25ZM1258.89,432.86c19.01,8.67,37.88,17.84,74.3,36.1,26.54,13.2,64.53,35.83,70.67,42.09,11.23,11.43,7.58,16.93-26.36,39.19-18.17,11.78-49.61,28.62-70.44,37.41-2.42.96-2.55,1.63-.79,3.52,1.4,1.41,1.46,2.4.47,2.45s-2.03-.88-2.59-2c-.58-1.45-2.55-1.18-8.51,1.48-4.2,1.73-7.92,3.1-8.1,2.94-.18-.32-3.39-7.25-7.16-15.46-9.43-20.46-26.64-78.82-38.56-131.2-2.43-10.77-4.83-20.88-5.42-22.5-.58-1.45-.16-2.8.83-2.86s10.64,4.02,21.66,8.85ZM1061.58,500.8c6.45,20.3,6.65,20.95,3.64,23.27-1.57,1.41-4.65,2.58-6.79,2.7-3.79.22-3.8.05-5-21.04-1.06-18.62-.76-27.89.98-26.34.35.31,3.54,9.88,7.17,21.41ZM1268.89,573.62c.13,2.31-.44,3.83-1.3,3.38s-1.29-2.41-.9-4.25c.89-4.68,1.91-4.24,2.2.87ZM1319.49,591.23c.06.99-1.48,3.06-3.36,4.82-1.89,1.6-5.8,5.62-8.58,8.92-5.89,6.95-7.89,6.57-4.66-.56,1.17-2.71,2.14-5.91,2.08-7.06-.06-.99.55-2.01,1.53-2.07.82-.05,1.22,1.09.8,2.43-1.41,4.21,1.81,2.71,5.79-2.81,4-5.19,6.24-6.47,6.4-3.67ZM1294.87,608.84c-1.23,1.56-4.31-3.06-3.26-4.94.45-.85,1.63-.42,2.54,1.01,1.08,1.59,1.34,3.23.72,3.93ZM1291.92,615.12c.27,4.78-3.03,4.8-3.46.2-.32-2.63.27-3.98,1.44-3.72,1.01.27,1.93,1.87,2.02,3.52ZM1308.33,615.84c.47-.52.48-.19-.28.84-.61.86-2.9,1.32-5.08.79-2.67-.51-3.21-1.14-1.78-2.21,1.12-.72,2.93-.83,4.13-.07,1.04.93,2.38,1.19,3.01.65ZM1278.28,630.94c-.47.52-1.94.77-3.12.34-1.35-.42-.88-.94.93-1.04,1.8-.27,2.82.17,2.19.7Z"/>
</svg>